<?xml version="1.0" encoding="UTF-8"?><svg id="Layer_1" xmlns="http://www.w3.org/2000/svg" viewBox="0 0 32 32"><defs><style>.cls-1{fill:#fff;}.cls-2{fill:#0a3254;}</style></defs><rect class="cls-2" width="32" height="32"/><path class="cls-1" d="m22.73,22.42s-.04-.06-.03-.11h-.02s-.01-.06-.02-.08c-.01-.02-.01-.04-.02-.07,0-.03-.02-.05-.03-.08,0-.02-.01-.05-.03-.07-.02-.02-.03-.07-.04-.09-.01-.03-.02-.06-.04-.09h-.14c.01.06-.05.12-.06.18-.03.05-.04.1-.06.14,0,.03-.02.05-.03.08,0,.02-.02.04-.02.07h-.02s-.03.07-.03.11h-.02s-.02.07-.03.11c-.01.04-.03.07-.05.11h.14s.03-.07.05-.11c0-.03.04-.07.03-.11h.32s.03.07.05.11c0,.03.04.07.03.11h.14s-.02-.07-.03-.11c-.01-.04-.03-.07-.05-.11Zm-.41-.11s.02-.06.03-.08c0-.02.02-.05.03-.07.02-.05.04-.09.05-.14h.03s.03.1.05.14c.01.04.06.09.05.14h-.23Z"/><path class="cls-1" d="m21.06,22.42s-.01-.09-.03-.11c-.02-.02-.02-.06-.03-.08,0-.02-.02-.05-.03-.08-.02-.05-.07-.11-.06-.16-.01-.03-.02-.05-.03-.08-.01-.02-.03-.05-.03-.08h-.14s-.03.11-.06.15c0,.06-.04.11-.06.16,0,.03-.02.06-.03.08,0,.02-.01.06-.03.08-.02.03-.03.07-.05.11,0,.07-.07.14-.08.21h.14s.02-.07.04-.11c.02-.03.01-.08.04-.11h.32c0,.07.07.14.08.21h.14c0-.07-.07-.14-.08-.21h-.02Zm-.39-.11c0-.06.04-.1.06-.16.01-.03.02-.05.03-.08,0-.02.02-.05.02-.08h.02s0,.06.02.08c.01.03.02.05.03.08.02.05.07.11.06.16h-.23Z"/><path class="cls-1" d="m17.12,22.42h-.02s-.03-.07-.03-.11h-.02s-.01-.05-.02-.08c-.01-.02-.01-.05-.02-.08,0-.01-.01-.02-.02-.04,0,0-.01-.04-.02-.05-.01-.02-.03-.04-.03-.07,0-.01-.01-.03-.02-.04,0-.01,0-.03-.02-.05-.01-.03-.04-.05-.03-.08h-.14s-.01.03-.02.04c0,.01,0,.03-.02.05-.01.03-.04.05-.03.08h-.02s-.03.11-.05.15c-.02.03-.06.11-.05.15h-.02s-.03.07-.03.11c-.02.02,0,.03-.02.05,0,.02-.02.03-.03.05-.01.03-.04.07-.03.11h.14s.02-.07.03-.11c.01-.04.03-.07.05-.11h.32s.02.08.03.11c0,.02.02.03.03.05,0,.02,0,.03.02.05h.14s-.03-.07-.05-.11c0-.03-.04-.07-.03-.11Zm-.41-.11s.03-.11.05-.15c0-.03.02-.06.03-.08,0-.02.02-.05.03-.07h.02s.03.11.05.15c0,.03.02.06.03.08,0,.02.02.05.03.07h-.23Z"/><path class="cls-1" d="m15.58,22.18h-.08c-.05-.03-.14-.05-.15-.11-.01-.07.06-.11.12-.14h.08c.08.04.14.07.14.17h.12c0-.07-.01-.11-.05-.17-.02-.04-.07-.07-.11-.09h-.08v-.02h-.12v.02h-.08s-.08.05-.11.09h-.02s-.03.08-.03.12c0,.05,0,.08.03.12.05.09.22.1.31.13.06.02.13.03.14.09.02.07-.05.11-.09.14h-.18c-.07-.06-.12-.08-.12-.18h-.12c0,.08.01.11.05.18h.02c0,.06.11.09.15.11h.23s.16-.05.15-.11h.02s.03-.06.03-.11c0-.04,0-.09-.02-.12-.05-.08-.16-.1-.24-.13Z"/><path class="cls-1" d="m21.69,22.25c.07-.09.15-.18.21-.28h.02v-.12h-.59v.12h.42c-.03.06-.08.09-.12.14-.03.04-.07.09-.11.14-.04.05-.08.1-.11.14-.02.03-.1.09-.1.14h-.02v.11h.63v-.11h-.47c.06-.1.15-.18.23-.28Z"/><path class="cls-1" d="m14.48,21.97c-.03-.06-.1-.08-.15-.11h-.14v-.02h-.27v.79h.39s.14-.05.17-.11c.03-.06.05-.08.06-.14,0,0,.01-.02.02-.03,0-.01,0-.03,0-.04v-.07c0-.11,0-.19-.06-.28h-.02Zm-.44.56v-.56h.26c.06.05.09.07.12.14.02.05.02.1.02.15,0,.13-.05.21-.17.27h-.23Z"/><path class="cls-1" d="m12.86,22.01s-.03-.04-.05-.07h-.02s-.08-.06-.12-.09h-.08v-.02h-.12v.02h-.08s-.1.05-.12.09h-.02c-.06.1-.11.19-.11.3,0,.06.01.11.03.16.01.03.01.05.03.08.01.02.03.04.05.07.06.04.1.07.17.11h.21c.06-.03.13-.05.17-.11h.02c.06-.1.09-.18.09-.3,0-.06-.01-.1-.03-.16-.01-.03-.01-.05-.03-.08Zm-.39.54c-.06-.05-.11-.08-.14-.15-.01-.02-.02-.05-.02-.08,0-.01,0-.03,0-.05,0,0-.01-.01-.02-.02.01,0,.02-.01.02-.02,0-.14.07-.23.21-.29h.06c.07.03.12.05.17.11.04.05.05.11.06.17.01.14-.06.26-.18.32h-.15Z"/><path class="cls-1" d="m19.35,21.86h-.09v-.02h-.36v.79h.14v-.3h.26v-.02h.08s.07-.05.09-.09h.02v-.02s.03-.09.03-.12,0-.1-.03-.12c-.03-.05-.07-.08-.12-.11Zm-.12.35v.02h-.2v-.26h.26c.05.03.08.06.08.12,0,.06-.01.09-.06.12h-.08Z"/><path class="cls-1" d="m19.88,21.85h-.12v.79h.5v-.11h-.38v-.68Z"/><path class="cls-1" d="m18.02,21.9s-.02.04-.03.06c0,.02-.02.04-.03.06,0,.02,0,.03-.02.05-.02.02,0,.03-.02.05,0,.02-.02.03-.03.05-.01.03-.02.07-.03.1-.03.06-.07.13-.08.2h-.02s-.02-.06-.03-.09c-.01-.03-.02-.06-.03-.09-.01-.03-.03-.06-.05-.1,0-.02-.01-.06-.03-.08,0-.04-.03-.09-.05-.13-.01-.04-.05-.08-.05-.13h-.15v.79h.12v-.53h.02s.02.06.03.09c.01.03.02.06.04.09.01.03.03.07.04.1,0,.03.03.05.03.08,0,.01.01.03.02.04,0,.01,0,.03.02.05.01.03.04.05.03.08h.11s.02-.05.03-.08c0-.02,0-.06.03-.08.02-.02,0-.03.02-.05,0-.02.02-.03.03-.05.01-.03.02-.07.03-.1.03-.06.07-.13.08-.2h.02v.56h.12v-.79h-.15s0,.03-.02.05Z"/><path class="cls-1" d="m16.11,22.63h.12v-.79h-.12v.79Z"/><path class="cls-1" d="m13.31,21.85h-.14v.79h.51v-.11h-.38v-.68Z"/><path class="cls-1" d="m10.99,21.97v.66h.54v-.11h-.42v-.24h.38v-.11h-.38v-.21h.42v-.12h-.54v.12Z"/><path class="cls-1" d="m10.55,22.18h-.38v-.33h-.12v.79h.12v-.35h.38v.35h.14v-.79h-.14v.33Z"/><path class="cls-1" d="m9.22,21.97h.24v.66h.12v-.66h.24v-.12h-.6v.12Z"/><path class="cls-1" d="m9.4,20.76v-.17s.02-.13-.02-.16h-.2c-.11-.06-.11-.16-.11-.28v-1.37c0-.08.02-.19,0-.26-.01-.05-.08-.08-.12-.11-.04-.03-.09-.06-.13-.09-.05-.04-.09-.08-.14-.11-.04-.03-.05-.05-.05-.11.02-.11.11-.17.21-.22h.11c.12.06.23.11.23.26h.35c0-.09,0-.18-.05-.26-.08-.16-.22-.25-.39-.32h-.08v-.02h-.26v.02h-.08c-.08.04-.15.06-.22.12-.07.06-.12.12-.16.2-.01.01-.02.05-.03.07,0,.03-.01.05-.02.08,0,.05-.02.1-.02.15,0,.06,0,.09.05.13.05.04.1.08.15.11.07.05.21.12.21.21v1.55c0,.06-.03.21.02.25-.01.06.04.14.08.18.03.03.06.06.1.08.03.02.06.03.09.05h.08v.02h.38Z"/><path class="cls-1" d="m19.76,19.68h.09v-.02h.08v-.02h.09v-.02h.09v-.02h.02v1.15h.42v-1.49c0-.09,0-.16-.02-.24,0-.04-.02-.09-.03-.13,0-.02-.02-.04-.03-.06,0-.02,0-.03-.02-.05v-.02h-.02s.12-.06.17-.11c.05-.04.11-.11.11-.17.03-.03.03-.1.03-.14v-.14h-.42c0,.11-.01.22-.12.27h-.06l-.03-.03h-.05v-.02h-.03v-.02h-.06v-.02h-.05v-.02h-.08v-.02h-.11v-.02h-.48v.02h-.12v.02h-.11v.02h-.08v.02h-.08v.02h-.08v.02h-.08s-.04.02-.06.03h-.02v.36h.11v-.02h.08v-.02h.08v-.02h.09v-.02h.09v-.02h.12v-.02h.5v.02h.09c.11.04.22.1.26.2.02.05.1.24.02.28h-.12v.02h-.14v.02h-.11v.02h-.11v.02h-.12v.02h-.11v.02h-.11v.02h-.09c-.08.03-.16.05-.23.09-.08.04-.18.08-.22.15h-.02v.02h-.02v.02h-.02v.02h-.02v.02h-.02v.02h-.02v.03h-.02v.02h-.02v.02c-.03.06-.05.09-.06.16,0,.01-.01.03-.02.05,0,.01,0,.03,0,.05,0,.01-.01.02-.02.04,0,.01,0,.03,0,.04,0,.06,0,.11.02.17,0,.03,0,.05.02.08,0,.02.01.06.03.08v.02h.02c.02.17.26.26.41.32h.08v.02h.12v.02h.45v-.35h-.36v-.02h-.09c-.15-.07-.25-.18-.2-.35.02-.08.07-.15.14-.2.06-.05.13-.07.2-.1h.08v-.02h.09v-.02h.08v-.02h.08v-.02h.09v-.02Z"/><path class="cls-1" d="m14.11,20.76v-1.49c0-.08,0-.16-.02-.24,0-.04-.02-.09-.03-.13,0-.02-.02-.04-.03-.06,0-.02,0-.03-.02-.05v-.02h-.02c-.08-.13-.19-.23-.33-.3h-.03l-.03-.03h-.05v-.02h-.06v-.02h-.08v-.02h-.11v-.02h-.48v.02h-.14v.02h-.09v.02h-.08v.02h-.09s-.04.02-.06.03h-.08s-.06.02-.08.05c0,.02,0,.06,0,.08v.26h.11v-.02h.08v-.02h.08v-.02h.08v-.02h.09v-.02h.12v-.02h.51v.02h.09c.11.06.2.09.26.2.02.05.02.09.03.14,0,.04.04.11-.02.14h-.14v.02h-.12v.02h-.12v.02h-.11v.02h-.11v.02h-.11v.02h-.11v.02h-.09c-.08.03-.16.05-.24.09-.04.02-.08.04-.12.07-.03.02-.09.05-.11.08h-.02v.02h-.02v.02h-.02v.03h-.02v.02h-.02v.02h-.02v.03h-.02v.02h-.02s-.02.05-.03.08c0,.02-.03.05-.03.08,0,.06-.02.11-.02.17v.08s.01.05.02.08c0,.03,0,.05.02.08,0,.02.02.05.02.08h.02v.02c.08.18.24.25.42.32h.08v.02h.12v.02h.45v-.35h-.38v-.02h-.08c-.08-.04-.15-.06-.2-.14-.02-.04-.03-.15-.02-.2.04-.16.2-.25.35-.3h.08v-.02h.08v-.02h.09v-.02h.08v-.02h.09v-.02h.08v-.02h.09v-.02h.09v-.02h.08v-.02h.03v1.15h.42Z"/><path class="cls-1" d="m24.86,18.94s0-.02,0-.02c0-.02-.02-.03-.03-.05-.01-.03-.01-.05-.03-.08v-.02h-.02c-.04-.08-.1-.13-.16-.2-.06-.06-.14-.08-.2-.14h-.03v-.02h-.05v-.02h-.06v-.02h-.09v-.02h-.39v.02h-.12v.02h-.09v.02h-.08v.02h-.08s-.06.01-.06.06c0,.03,0,.06,0,.09v.24h.11v-.02h.11v-.02h.09v-.02h.11v-.02h.33v.02h.08c.09.04.17.08.22.17.04.07.06.14.07.22.02.13,0,.27,0,.4v1.19h.42v-1.21c0-.13,0-.26,0-.39,0-.06-.02-.13-.03-.19,0,0-.01-.02-.02-.03Z"/><path class="cls-1" d="m11.73,19.17c-.02-.15-.09-.27-.15-.4h-.02v-.02c-.04-.07-.1-.12-.17-.17-.06-.05-.14-.08-.2-.13h-.05v-.02h-.05v-.02h-.05v-.02h-.06v-.02h-.11v-.02h-.45v.02h-.15v.02h-.11v.02h-.09v.02h-.09v.02h-.08s-.08.02-.1.04c-.01.02,0,.06,0,.09v.29h.06v-.02h.08v-.02h.09v-.02h.09v-.02h.11v-.02h.12v-.02h.23v-.02h.12v.02h.14c.18.07.35.14.41.32.01.04.03.07.05.11,0,.02.01.04.02.06v.03s0,.02.02.03c0,.03,0,.07,0,.11,0,.04.02.07.02.12v.06s-.01.04-.02.06c0,.03,0,.07,0,.11-.01.08-.04.15-.06.23-.03.09-.06.15-.14.23-.07.07-.15.1-.24.14h-.08v.02h-.42v-.02h-.15s-.02-.13-.02-.17v-.17c0-.07-.03-.31.03-.34h.21v-.02h.08v-.27h-.72v1.18s0,.07.02.09c.02.02.08.02.11.03h.08v.02h.09v.02h.11v.02h.11v.02h.17v.02h.38v-.02h.12v-.02h.06v-.02h.06v-.02h.03v-.02h.05c.06-.05.15-.08.21-.13.07-.05.13-.11.17-.19h.02v-.02c.07-.13.13-.25.15-.4,0-.01.01-.03.02-.05v-.03s0-.02.02-.03c0-.03,0-.06,0-.09,0-.07.02-.13.02-.2s-.02-.13-.02-.2-.02-.13-.03-.2Z"/><path class="cls-1" d="m16.35,19.93v.83h.42v-1.62c0-.14-.04-.27-.11-.39v-.02h-.02c-.12-.19-.32-.25-.53-.33h-.09v-.02h-.11v-.02h-.44v.02h-.12v.02h-.08c-.09.04-.19.06-.28.11-.05.03-.1.06-.14.1-.03.03-.11.09-.11.13h-.02v.02h-.02c0,.07-.06.13-.08.2-.01.07-.02.13-.02.21v1.26c0,.06-.03.31.03.33h.09v.02h.42v-.02h.09c.19-.07.41-.15.51-.33h.02s.03-.07.05-.1c.02-.03.03-.06.05-.09.01-.03.04-.06.05-.09,0-.04,0-.06.02-.1.01-.06.03-.12.03-.19v-.19c0-.1-.02-.19-.02-.29h-.62v.15s0,.06,0,.08c0,.04.01.04.05.05h.21s0,.17,0,.22c-.01.08-.03.14-.06.21-.08.16-.2.26-.38.32h-.11v-1.23s0-.08.02-.12c.03-.19.19-.26.36-.32h.14v-.02h.26v.02h.12c.17.06.36.13.38.33,0,.07.02.13.02.21v.63Z"/><path class="cls-1" d="m6.5,18.76v-.02c-.11-.2-.34-.26-.54-.33h-.08v-.02h-.11v-.02h-.45v.02h-.11v.02h-.08c-.2.08-.43.13-.54.33v.02h-.02c-.03.07-.05.13-.08.2-.02.06-.02.14-.02.21v1.26c0,.06-.03.31.03.33h.09v.02h.42v-.02h.08c.19-.07.42-.14.53-.33.04-.07.08-.12.11-.19.02-.06.04-.12.06-.19.04-.12.03-.25.03-.38v-.08s0-.03,0-.04c0-.01-.01-.02-.02-.03,0-.02,0-.05,0-.08,0-.03-.01-.04-.02-.07h-.62v.16s0,.06,0,.08c.01.03.02.03.06.05h.21s.02.08.02.11c0,.02-.01.03-.02.05,0,.02,0,.04,0,.06,0,.03-.02.07-.03.11-.01.03-.01.07-.03.11-.04.07-.1.16-.17.21-.07.06-.14.08-.23.11h-.09v-.9c0-.14-.02-.31,0-.45,0,0,.01-.05.02-.05,0-.02.02-.03.03-.05.03-.04.06-.09.11-.12.06-.05.15-.07.23-.1h.14v-.02h.24v.02h.14c.09.03.17.05.24.11.08.06.13.14.14.23.02.27,0,.56,0,.83v.83h.42v-1.23c0-.26.04-.57-.09-.78h-.02Z"/><path class="cls-1" d="m27.55,18.39h-.44v1.66c0,.16-.11.27-.26.35h-.08v.02h-.2c-.08-.03-.17-.06-.24-.11-.07-.06-.11-.15-.15-.23-.07-.14-.12-.3-.12-.47,0-.08-.02-.14-.02-.23v-.99h-.72c0,.06-.03.26.03.29h.21c.06.02.06.02.06.08v1.43s0,.07-.02.11c0,.02,0,.04-.02.06-.01.02-.03.03-.05.05h-.03v.02h-.18s-.02.12-.02.17v.17h.36c.08-.03.15-.06.21-.13.03-.03.06-.07.08-.11.01-.03.04-.06.03-.1h.02c.08.17.24.25.41.33h.06v.02h.39v-.02h.12c.09-.03.18-.05.26-.11.1-.06.14-.14.2-.23v-.02h.02v-.02s.02-.08.03-.11c0-.01.01-.04.02-.05,0-.02.01-.03.02-.05,0-.04,0-.08,0-.11,0-.04.01-.07.02-.11.02-.26,0-.53,0-.79v-.78Z"/><path class="cls-1" d="m22.54,18.85v.83c0,.13.02.29,0,.42-.02.07-.06.15-.13.2-.06.05-.14.07-.21.11h-.12v.02h-.15v-.02h-.11c-.18-.07-.33-.17-.33-.38v-.02s-.02-.02,0-.03c0-.02,0-.04,0-.06,0-.04.01-.08.03-.12.05-.09.12-.13.21-.17h.41v-.38h-.3c-.07-.02-.12-.04-.17-.09-.05-.05-.09-.1-.11-.17,0-.03-.01-.06-.02-.08,0-.03-.01-.06-.02-.09,0-.02,0-.05,0-.08,0-.04.02-.04.06-.05h.21s.04-.02.05-.06c0-.02,0-.05,0-.08v-.15h-.74v.43c0,.05.02.08.02.14s.02.1.03.14c.01.04.05.09.05.14h.02s.06.09.11.13c.02.02.04.03.06.05.03.02.03,0,0,.03-.04.03-.09.04-.13.07-.05.03-.07.06-.1.11h-.02s-.03.06-.05.1c-.01.03-.02.06-.03.1-.02.06-.02.13-.02.2,0,.15.01.27.09.39v.02h.02s.07.1.09.13c.04.03.09.07.13.09.08.05.18.07.26.11h.08v.02h.12v.02h.38v-.02h.11v-.02h.08c.19-.07.39-.15.5-.33v-.02h.02s.02-.03.03-.05c0-.01,0-.04.02-.06.01-.03.03-.07.03-.11,0-.04,0-.08,0-.11,0-.03,0-.07,0-.11v-1.57h-.44v.46Z"/><path class="cls-1" d="m6.61,17.73h-1.87v.36h1.87v-.36Z"/><path class="cls-1" d="m16.5,17.59s.06-.08.09-.12c.04-.05.05-.05.05-.11h-.41s-.05.08-.08.11c-.03.04-.06.08-.09.12-.06.08-.13.15-.18.23h-.02s-.01.04-.02.07c0,.02,0,.05,0,.07v.14h.69v-.27h-.24s.06-.08.09-.11c.04-.04.07-.08.11-.12Z"/><path class="cls-1" d="m18.49,15.92s-.02.03-.03.05c0,.02,0,.04,0,.06v.13h.77v-.14s0-.03,0-.04c0-.02-.01,0-.02-.02-.01-.02-.03,0-.02-.05h-.02v-.89h.02v-.14h-.02v-1.83h.02v-.26h-.02v-.38h.02v-.26h-.02c-.02-.17-.06-.33-.14-.48-.04-.09-.12-.17-.2-.24-.07-.07-.17-.11-.24-.17h-.03c-.06-.06-.16-.08-.24-.11h-.05v.11s0,.08,0,.12c0,.05,0,.02.03.05.01.01.02.02.02.04v.45h-.02c-.18-.09-.32-.21-.32-.41v-.09h-.17v-.33h.05v-.18h.12v-.41s.02-.04.02-.08h.02c.01-.07.08-.11.14-.15h.05v-.15h-.24c-.03-.06-.14-.12-.2-.16-.07-.05-.14-.09-.21-.14-.07-.04-.14-.08-.21-.12-.07-.03-.15-.06-.21-.11h-.05c-.06-.06-.17-.07-.24-.11h-.05v-.02h-.05v-.02h-.06v-.02h-.05v-.02h-.08v-.02h-.06v-.02h-.09v-.02h-.11v-.02h-.15v-.02h-.38v.02h-.15v.02h-.11v.02h-.08v.02h-.08v.02h-.06v.02h-.06v.02h-.05v.02h-.05s-.03.02-.05.03h-.05c-.05.03-.11.05-.17.08h-.03c-.12.1-.29.14-.42.23-.07.05-.14.09-.2.14-.06.05-.16.1-.2.17h-.24v.15h.05c.06.05.11.08.15.15.02.02.02.05.02.08v.41h.12v.18h.05v.33h-.17v.05s.02.03.02.05h-.02c0,.08-.02.16-.07.23-.07.08-.16.11-.23.18h-.03v-.45s0-.03.02-.05c.02-.02.02,0,.02-.05,0-.04,0-.08,0-.12v-.11h-.05c-.08.04-.18.05-.24.11h-.03c-.08.07-.17.11-.24.17-.08.07-.14.15-.18.24-.04.08-.08.16-.11.24-.02.07-.03.15-.03.23h-.03v.26h.03v.38h-.03v.26h.03v1.83h-.03v.14h.03v.89h-.03s-.02.03-.03.05c0,.02,0,.04,0,.06v.13h.77v-.13s0-.05,0-.06c0-.02-.03-.02-.02-.05h-.08v-.89h.08v-.14h-.08v-1.24h.08v-.15h-.06c0-.14.13-.22.26-.27h.09c.13.05.26.13.26.27h-.06v.15h.08v1.24h-.08v.14h.08v.89h-.08s-.02.03-.03.05c0,.02,0,.04,0,.06v.13h1.36v-.13s0-.05,0-.06c0-.02-.03-.02-.02-.05h-.09v-.89h.12v-.14h-.12v-1.83h.12v-.26h-.12v-.38h.12v-.26h-.08c0-.06.03-.13.05-.19.03-.08.06-.13.11-.2.09-.14.23-.21.38-.28h.08v-.02h.26c.17.06.31.12.42.26.09.11.17.27.17.42h-.08v.26h.14v.38h-.14v.26h.14v1.83h-.14v.14h.14v.89h-.11s-.02.03-.03.05c0,.02,0,.04,0,.06v.13h1.37v-.13s0-.05,0-.06c0-.02-.03-.02-.02-.05h-.09v-.89h.08v-.14h-.08v-1.24h.08v-.15h-.06s0-.06.02-.08c.02-.03.04-.06.07-.08.05-.05.1-.08.17-.11h.09c.06.02.13.05.18.1.03.03.04.06.06.09.01.03,0,.06.03.08h-.06v.15h.06v1.24h-.06v.14h.06v.89h-.06Zm.59,0h-.35v-.89h.35v.89Zm0-1.03h-.35v-.14h.35v.14Zm0-.18h-.35v-.21h.35v.21Zm0-.26h-.35v-.2h.35v.2Zm0-.24h-.35v-.21h.35v.21Zm0-.26h-.35v-.21h.35v.21Zm0-.26h-.35v-.2h-.02v-.02h.36v.21Zm-.5-.51s-.05-.03-.06-.05h-.02s-.1-.05-.15-.08h.29v.2h-.02s-.02-.05-.05-.07Zm-.6-.05h-.03s-.08.07-.11.12h-.02v-.2h.29s-.12.03-.14.08Zm-.23.36v.2h-.6v-.21h.6v.02Zm0,.45h-.6v-.21h.6v.21Zm0,.26h-.6v-.21h.6v.21Zm0,.24h-.6v-.2h.6v.2Zm0,.26h-.6v-.21h.6v.21Zm0,.18h-.6v-.14h.6v.14Zm-.6-1.45v-.21h.6v.21h-.6Zm-.05-.56h.69v.09h-.69v-.09Zm.05-.45h.6v.38h-.6v-.38Zm0-.38h.6v.12h-.6v-.12Zm-.71-.88s-.09-.04-.14-.06h.75v.65h-.02c-.02-.11-.12-.23-.2-.32-.05-.05-.1-.1-.16-.14-.06-.04-.11-.08-.17-.11h-.05v-.02h-.03Zm-.85,0h-.03v.02h-.03c-.05.04-.12.07-.17.11-.06.04-.11.1-.17.15s-.09.12-.13.17c-.03.04-.09.1-.08.16h-.02v-.66h.75s-.09.04-.14.06Zm-.69.83h-.62v-.21h.62v.21Zm0,.17h-.62v-.12h.62v.12Zm.03.8h-.68v-.09h.68v.09Zm-.03.21h-.62v-.12h.62v.12Zm0,.26h-.62v-.21h.62v.21Zm0,.26h-.62v-.21h.62v.21Zm0,.26h-.62v-.21h.62v.21Zm0,.26h-.62v-.21h.62v.21Zm0,.24h-.62v-.2h.62v.2Zm0,.26h-.62v-.21h.62v.21Zm0,.18h-.62v-.14h.62v.14Zm-.75-1.7s-.05-.03-.06-.05h-.02s-.1-.05-.15-.08h.29v.2h-.02s-.02-.05-.05-.07Zm-.6-.05h-.03s-.08.07-.11.12h-.02v-.2h.29s-.12.03-.14.08Zm-.15-.71h.82v.38h-.82v-.38Zm.03.45h.74v.09h-.74v-.09Zm1.48-.08h-.62v-.38h.62v.38Zm-.62-1.27h.62v.21h-.62v-.21Zm.74-.6v-.24h1.99v.33h-1.99v-.09Zm2.73.82h-.6v-.21h.6v.21Zm-.6.05h.6v.21h-.6v-.21Zm1.49,1.01h-.82v-.38h.82v.38Zm-.03.17h-.74v-.09h.74v.09Zm-1.46.09h.6v.12h-.6v-.12Zm1.93.38h-.36v-.21h.36v.21Zm0-.26h-.36v-.12h.36v.12Zm.03-.21h-.41v-.09h.41v.09Zm-.03-.17h-.36v-.38h.36v.38Zm-.69-1.52c.2.1.39.19.51.37.11.16.18.32.18.52h-.09s0-.06-.02-.08c-.01-.03,0-.06-.02-.09,0-.02-.02-.06-.03-.08,0-.02-.02-.06-.03-.08-.06-.12-.16-.26-.29-.34h-.02s-.11-.07-.17-.09c-.07-.03-.08-.04-.08-.12h.03Zm.03.21h.03c.06.05.13.08.19.14.06.06.11.11.15.18.06.11.11.23.11.36h-.48v-.68Zm-.5.14s0,.04.02.06c0,.01.01.04.02.05.04.07.11.16.18.2h.02s.11.05.16.08c.04.03.02.1.02.15h-.5v-.63h.08s.01.07.02.1Zm-.17-.19v.05h-.6v-.21h.6v.17Zm0-.21h-.6v-.12h.6v.12Zm.05-.21h-.69v-.09h.69v.09Zm.11-.17h-.8v-.17h.8v.17Zm-1.01-1.24c.15.08.32.13.47.22.16.09.31.21.47.31h-.41s-.09-.06-.14-.09h-.03c-.05-.04-.12-.06-.18-.09-.04-.02-.15-.03-.14-.09,0-.05,0-.08-.02-.13,0-.04-.05-.09-.05-.13h.02Zm-1.9.53h-.24c.03-.06.15-.08.2-.12h.05v.12Zm.09-.12c-.02-.08.25-.13.32-.15h.08v-.02h.08v-.02h.11v-.02h.15v-.02h.35v.02h.15v.02h.09v.02h.09v.02h.06c.07.03.43.09.41.18v.09h-1.87v-.12Zm1.96.03h.05s.11.05.15.09h-.2v-.09Zm-1.6-.53s.04-.02.06-.03h.09v-.02h.12v-.02h.26v-.02h.02v.02h.27v.02h.11v.02h.09v.02h.08s.24.04.23.11h.02s.05.08.06.13c0,.02,0,.04.02.07,0,.02.02.04.02.06h-.05v-.02h-.05v-.02h-.06v-.02h-.05v-.02h-.06v-.02h-.08v-.02h-.08v-.02h-.09v-.02h-.12v-.02h-.53v.02h-.12v.02h-.09v.02h-.08v.02h-.08v.02h-.06v.02h-.05v.02h-.06c0-.09.05-.16.09-.24h.02s.05-.06.08-.08h.08Zm-1.01.44c.07-.05.15-.1.23-.14.15-.09.31-.14.47-.22h.05s-.03.08-.05.12c-.01.03-.03.09-.03.12v.03c-.08.08-.23.07-.32.15h-.03s-.14.07-.17.12h-.38c.04-.08.16-.13.23-.18Zm-.41.33h3.99s-.04.05-.05.08c-.01.02-.02.05-.04.08h-3.8c0-.06-.06-.1-.09-.15Zm.11.23h3.77v.08h-3.77v-.08Zm0,.33v-.17h.8v.17h-.8Zm.12.08h.68v.09h-.68v-.09Zm.03.18h.62v.12h-.62v-.12Zm0,.33v-.17h.62v.21h-.62v-.05Zm-.55.58s.06-.02.08-.03c.03-.01.05-.04.08-.05h.02c.14-.09.23-.25.23-.41h.08v.63h-.5v-.08s0-.04.02-.06Zm-.1-.09v.23h-.5c0-.13.06-.27.12-.37.04-.07.09-.14.16-.19.04-.04.15-.07.17-.12h.05v.45Zm-.63-.04c.03-.1.09-.18.14-.26.11-.19.33-.27.52-.36h.02s0,.07,0,.08c-.01.02-.05.03-.08.04-.04.02-.13.05-.15.09h-.03s-.05.05-.08.07c-.03.03-.06.06-.09.09-.04.05-.07.12-.11.17-.06.11-.09.22-.09.35h-.11c0-.09.02-.19.05-.26Zm-.05.52h.36v.38h-.36v-.38Zm-.03.45h.42v.09h-.42v-.09Zm.03.18h.36v.12h-.36v-.12Zm0,.17h.36v.21h-.36v-.21Zm0,.26h.36v.21h-.36v-.21Zm0,.26h.36v.21h-.36v-.21Zm0,.26h.36v.21h-.36v-.21Zm0,.26h.36v.2h-.36v-.2Zm0,.24h.36v.21h-.36v-.21Zm0,.26h.36v.14h-.36v-.14Zm0,1.16v-.89h.36v.89h-.36Zm.48,0h-.05v-.89h.05v.89Zm0-1.03h-.05v-1.24h.05v1.24Zm.71-1.46s-.02-.05-.04-.07c-.03-.05-.08-.1-.13-.14h-.02s-.07-.03-.11-.05h-.12s-.06.02-.09.05h-.03c-.1.07-.17.16-.17.27h-.06v-.02h.02v-.05s.02-.07.04-.09c.02-.03.05-.06.07-.09h.02c.04-.07.13-.09.2-.12h.15c.07.03.16.05.2.12h.02c.04.07.1.1.11.18,0,.02,0,.03.02.05v.02h-.05s-.01-.04-.02-.07Zm.02.22h.05v1.24h-.05v-1.24Zm0,2.26v-.89h.05v.89h-.05Zm.12,0v-.89h.62v.89h-.62Zm.92-.02h-.23v-.88h.23v.88Zm0-1.01h-.23v-1.83h.23v1.83Zm.09-2.01v.09h-.27v-.09h.27Zm-.09-.08h-.23v-.38h.23v.38Zm1.59-.63c0-.14-.05-.26-.12-.37-.04-.06-.09-.13-.16-.19-.06-.05-.13-.07-.19-.12h-.05s-.03-.02-.05-.03h-.06v-.02h-.29v.02h-.08s-.03.02-.05.03h-.05v.02h-.03c-.06.05-.13.08-.18.13-.03.03-.07.06-.09.09-.02.02-.05.06-.06.09-.03.06-.05.12-.08.18-.01.03-.01.06-.02.09,0,.03-.02.05-.02.08h-.27s.02-.08.02-.12c0-.02,0-.03.02-.05,0-.04,0-.07.02-.11.01-.03.01-.08.04-.11v-.02h.02c0-.08.08-.14.12-.2.05-.07.11-.13.18-.18.12-.1.26-.15.41-.2h.08v-.02h.32v.02h.08c.06.03.13.05.2.08.07.03.14.08.2.12.07.05.13.13.18.19.03.03.06.06.08.09.02.03.02.07.05.1,0,.01.01.02.02.03.02.04.03.07.05.11,0,.03,0,.08.03.11v.05s.01.04.02.06c0,.02,0,.04,0,.06h-.27Zm.06.26h.21v.38h-.21v-.38Zm-.09.54v-.09h.26v.09h-.26Zm.09.09h.21v1.83h-.21v-1.83Zm0,1.96h.21v.88h-.21v-.88Zm.3.89v-.89h.6v.89h-.6Zm.72,0h-.05v-.89h.05v.89Zm0-1.03h-.05v-1.24h.05v1.24Zm.68-1.53c-.03-.05-.09-.07-.12-.13h-.03s-.07-.03-.11-.05h-.12s-.06.02-.09.05h-.03c-.1.06-.17.16-.17.27h-.05v-.06s.02-.06.04-.09c.02-.03.05-.06.07-.09h.02c.04-.07.13-.09.2-.12h.15c.07.03.16.05.2.12h.02c.04.07.1.1.11.18,0,.02,0,.03.02.05v.02h-.05s-.03-.11-.05-.14Zm.05.29h.05v1.24h-.05v-1.24Zm0,1.37h.05v.89h-.05v-.89Z"/><path class="cls-1" d="m8.12,15.92v-.29h-.24v.33h.24v-.05Zm-.2,0v-.24h.17v.24h-.17Z"/><path class="cls-1" d="m5.42,15.92v-.29h-.24v.33h.24v-.05Zm-.2,0v-.24h.15v.24h-.15Z"/><path class="cls-1" d="m2.72,15.92v-.29h-.24v.33h.24v-.05Zm-.21,0v-.24h.17v.24h-.17Z"/><path class="cls-1" d="m19.05,15.72v-.56h-.3v.6h.3v-.05Zm-.26,0v-.51h.21v.51h-.21Z"/><path class="cls-1" d="m11.85,15.68v.33h-.02s-.03.04-.03.08c0,.02,0,.05,0,.08h.5s0-.06,0-.08c0-.03,0-.02-.02-.04-.01-.02-.02,0-.02-.03h-.02v-.41h.02v-.11h-.03v-.39h.03v-.03h.08v-.15h-.11v-1.3h.11v-.15h-.14v-.08h-.05v-.11h.05v-.11h-.06v-.94h.3v-.09h.05s-.03-.04-.05-.06h-.02c-.03-.05-.1-.09-.14-.14-.05-.05-.11-.09-.14-.15h-.02s-.05-.04-.05-.08v-.02h.03s-.02-.04-.03-.06h-.02c-.05-.08-.16-.17-.23-.23-.08-.07-.16-.14-.23-.22l-.23-.23c-.07-.07-.18-.15-.23-.23h-.02s-.04-.05-.06-.08H3.58s-.04.05-.06.08h-.02c-.05.09-.16.16-.23.23-.08.08-.16.14-.23.22-.08.08-.16.16-.23.23-.07.07-.18.15-.23.23h-.02s-.03.03-.03.06h.03v.02s-.03.05-.05.08h-.02c-.06.11-.21.17-.27.29h-.03s-.02.04-.03.06h.03v.09h.3v.06h-.02v.18h.02v.05h-.02v.2h.02v.05h-.02v.18h.02v.05h-.02v.18h-.53s-.06-.06-.08-.09h-.05s-.06.06-.08.09h-.06v.11h.05v.11h-.05v.08h-.14v.15h.11v1.3h-.11v.15h.08v.03h.03v.39h-.03v.11h.02v.41h-.02s-.03.04-.03.08c0,.02,0,.05,0,.08h.5s0-.06,0-.08c0-.03,0-.02-.02-.04-.01-.02-.02,0-.02-.03h-.02v-.41h.02v-.11h-.03v-.39h.03v-.03h.29v.03h.05v.39h-.05v.11h.03v.41h-.03s-.03.04-.03.08c0,.02,0,.05,0,.08h.5s0-.05,0-.08c0-.03-.02-.05-.02-.08h-.03v-.41h.03v-.11h.02l.03-.03h.03s.06-.03.09-.05h.09v-.02h.39v.02h.08s.06.02.09.05h.05s.01.02.02.03h.02s.02.07.02.11h.02v.41h-.02s-.03.04-.03.08c0,.02,0,.05,0,.08h.5s0-.06,0-.08c0-.03,0-.02-.02-.04-.01-.02-.02,0-.02-.03h-.02v-.41h.02s0-.08.02-.11h.02l.03-.03h.03s.06-.03.09-.05h.08v-.02h.41v.02h.08s.06.03.09.05h.03s.02.02.03.03h.02v.11h.03v.41h-.03s-.02.11-.02.15h.48s0-.05,0-.08c0-.03-.02-.05-.02-.08h-.03v-.41h.03v-.11h.03v-.02h.02s.09-.04.14-.06h.08v-.02h.39v.02h.08l.06.03h.05s.04.03.06.05h.02v.11h.02v.41h-.02s-.03.04-.03.08c0,.02,0,.05,0,.08h.5s0-.06,0-.08c0-.03,0-.02-.02-.04-.01-.02-.02,0-.02-.03h-.02v-.41h.02s0-.08.02-.11h.02l.03-.03h.03s.06-.03.09-.05h.08v-.02h.41v.02h.08s.06.03.09.05h.03s.02.02.03.03h.02v.11h.03v.41h-.03s-.02.11-.02.15h.48s0-.05,0-.08c0-.03-.02-.05-.02-.08h-.03v-.41h.03v-.11h.03v-.02h.02s.09-.04.14-.06h.08v-.02h.39v.02h.08l.06.03h.05s.04.03.06.05h.02v.11h.02v.41h-.02s-.03.04-.03.08c0,.02,0,.05,0,.08h.5s0-.06,0-.08c0-.03,0-.02-.02-.04-.01-.02-.02,0-.02-.03h-.02v-.41h.02s0-.08.02-.11h.02s.02-.02.03-.03h.03s.06-.03.09-.05h.09v-.02h.39v.02h.08s.06.02.09.05h.03l.03.03h.02v.11h.03v.41h-.03s-.02.11-.02.15h.5s0-.06,0-.08c0-.03,0-.02-.02-.04-.01-.02-.02,0-.02-.03h-.02v-.41h.02v-.11h.03v-.02h.02s.09-.04.14-.06h.08v-.02h.39v.02h.08s.07.03.11.05h.03l.03.03h.02v.11h.02v.08Zm-7.85-2.28h-.11v-.11h.11v.11Zm-1.46-.11h.12v.11h-.12v-.11Zm.17,0h.11v.11h-.11v-.11Zm.15,0h.11v.11h-.11v-.11Zm.12-1.04h.02v.36s0,.04.02.05h-.02v.12h.02s-.03.02-.02.05v.36h-.02v-.94Zm1.01.03h-.08v-.03h.08v.03Zm0,.83h-.02v-.02h-.05v.02h-.02v-.69h.08v.69Zm-.03-.74h-.03v-.05h.05s0,.03-.02.05Zm-.11-.09v.91h-.23v-.94h.23v.03Zm-.27.91h-.02v-.36s0-.04-.03-.05h.03v-.14h-.03s.03-.01.03-.03v-.36h.02v.94Zm-.54-.23h.21v.23h-.21v-.23Zm0-.09h.48v.05h-.48v-.05Zm.18-.2h.02s.01,0,.02,0v.1s-.01,0-.02,0h-.02c-.03-.06-.03-.04,0-.09Zm.11,0h.02s.02.04.03.05c-.02.01-.02.02,0,.02,0,0,.02,0,.02,0h-.05s-.02.03-.03.04c0,0,0,0,0,0-.01,0-.02,0-.03-.01h.02v-.12h-.03s.02-.01.03-.02h.02s.01.02.02.03Zm0,.12h.05s.02-.02.02-.04c.03.02.06.03.08.07h-.14s0-.03-.02-.03Zm.18-.02s-.04-.03-.05-.05c-.01-.03,0-.02.02-.05h.02s.02-.01.03-.02v.12s-.01,0-.02,0Zm-.08-.1h-.03s-.01-.02-.02-.03h-.02s-.01-.02-.02-.03h.12s-.03.04-.05.06Zm-.24-.03h-.02s-.01.02-.02.03h-.03s-.03-.04-.05-.06h.12s-.01.02-.02.03Zm-.14.03h.02c.03.06.03.04,0,.09h-.02s0,0-.02,0v-.1s0,0,.02,0Zm.08.09h.03s.03.04.05.06h-.12s.03-.04.05-.06Zm.17.2h.23v.23h-.23v-.23Zm.23-.39h-.23v-.32h.23v.32Zm-.27,0h-.21v-.32h.21v.32Zm-.24.72h.11v.11h-.11v-.11Zm.15,0h.09v.11h-.09v-.11Zm.14,0h.11v.11h-.11v-.11Zm.15,0h.11v.11h-.11v-.11Zm.15,0h.11v.11h-.11v-.11Zm.14,0h.11v.11h-.11v-.11Zm.32-.18v-.86h.24v.94h-.24v-.08Zm.29-.86h.02v.36s0,.04.02.05h-.02v.12h.02s-.03.02-.02.05v.36h-.02v-.94Zm.53.32h-.21v-.32h.21v.32Zm0,.35h-.47v-.05h.47v.05Zm-.18-.24c.03.06.03.04,0,.09h-.02v.02h-.02v-.12h.02v.02h.02Zm-.11.09c-.03-.06-.03-.04,0-.09h.02v-.02h.02v.12h-.02v-.02h-.02Zm-.05-.11h-.02v.02h-.03s-.03-.04-.05-.06h.12s-.02.03-.03.05Zm-.12.02h.02c.03.06.03.04,0,.09h-.02s0,0-.02,0v-.1s0,0,.02,0Zm.08.09h.03v.02h.02s.02.03.03.05h-.12s.03-.04.05-.06Zm.21.06s.02-.03.03-.05h.02v-.02h.03s.03.04.05.06h-.12Zm.15-.06h-.02c-.03-.06-.03-.04,0-.09h.02s0,0,.02,0v.1s0,0-.02,0Zm-.08-.09h-.03v-.02h-.02s-.02-.03-.03-.05h.12s-.03.04-.05.06Zm-.17-.11h-.21v-.32h.21v.32Zm-.21.39h.21v.23h-.21v-.23Zm.26,0h.21v.23h-.21v-.23Zm.26,0v-.14s0-.04-.02-.05h.02v-.12h-.02s.03-.02.02-.05v-.36h.02v.94h-.02v-.23Zm.06-.71h.23v.94h-.23v-.94Zm.36.03h-.06v-.03h.06v.03Zm-.02.09h-.03s-.02-.03,0-.05h.03s.02.03,0,.05Zm-.05.05h.06v.77h-.06v-.77Zm.14,0v-.17h.23v.94h-.23v-.77Zm.27-.17h.02v.94h-.02v-.94Zm.54.32h-.21v-.32h.21v.32Zm0,.35h-.48v-.05h.48v.05Zm-.18-.15h-.02s-.01.02-.02.03h-.02s.01-.08.01-.13c0,0,.01,0,.02,0h.02c.03.06.03.04,0,.09Zm-.11,0h-.02s-.02-.02-.03-.04c-.01-.03.02-.01,0-.03,0,0,0,0,0,0h.04s.02-.03.03-.04c0,0,0,0,0,0,.01,0,.02,0,.03.01h-.02v.14h-.02s-.01-.02-.02-.03Zm0-.12h-.05s-.02.02-.02.04c-.02,0-.04-.01-.05-.04h-.05s.05,0,.02-.03h.14s0,.03.02.03Zm-.18,0s0,0,0,0c0,.03.02.03.04.06.02.04.01.02,0,.06h-.02s0,.02-.01.03c0,0,0,0,0,0-.01-.01,0-.05,0-.07,0-.03,0-.06.02-.07Zm.02.15h.04s.01-.02.02-.03h.03s.01.02.02.03h.02s.01.02.02.03h-.12s0-.03-.01-.03Zm.29.03s.01-.02.02-.03h.02s.01-.02.02-.03h.03s.03.04.05.06h-.12Zm.15-.06h-.02c-.03-.06-.03-.04,0-.09h.02s0,0,.02,0v.1s0,0-.02,0Zm-.08-.09h-.03s-.03-.04-.05-.06h.12s-.03.04-.05.06Zm-.17-.11h-.23v-.32h.23v.32Zm-.23.39h.23v.23h-.23v-.23Zm.26,0h.23v.23h-.23v-.23Zm.27,0v-.14s0-.04-.02-.05h.02v-.12h-.02s.03-.02.02-.05v-.36h.02v.94h-.02v-.23Zm.06-.71h.23v.94h-.23v-.94Zm.36.03h-.08v-.03h.08v.03Zm-.02.09h-.05v-.05h.05v.05Zm-.06.05h.08v.77h-.08v-.77Zm.14,0v-.17h.24v.94h-.24v-.77Zm.29-.17h.02v.36s0,.04.02.05h-.02v.12h.02s-.03.02-.02.05v.36h-.02v-.94Zm.53.32h-.21v-.32h.21v.32Zm0,.35h-.47v-.05h.47v.05Zm-.18-.24c.03.06.03.04,0,.09h-.02v.02h-.02v-.12h.02v.02h.02Zm-.11.09c-.03-.06-.03-.04,0-.09h.02v-.02h.02v.12h-.02v-.02h-.02Zm-.05-.11h-.02v.02h-.03s-.03-.04-.05-.06h.12s-.02.03-.03.05Zm-.12.02h.02c.03.06.03.04,0,.09h-.02s0,0-.02,0v-.1s0,0,.02,0Zm.08.09h.03v.02h.02s.02.03.03.05h-.12s.03-.04.05-.06Zm.21.06s.02-.03.03-.05h.02v-.02h.03s.03.04.05.06h-.12Zm.15-.06h-.02c-.03-.06-.03-.04,0-.09h.02s0,0,.02,0v.1s0,0-.02,0Zm-.08-.09h-.03v-.02h-.02s-.02-.03-.03-.05h.12s-.03.04-.05.06Zm-.17-.11h-.21v-.32h.21v.32Zm-.21.39h.21v.23h-.21v-.23Zm.26,0h.21v.23h-.21v-.23Zm.26,0v-.14s0-.04-.02-.05h.02v-.12h-.02s.03-.02.02-.05v-.36h.02v.94h-.02v-.23Zm.06-.71h.23v.94h-.23v-.94Zm.36.03h-.06v-.03h.06v.03Zm-.02.09h-.03s-.02-.03,0-.05h.03s.02.03,0,.05Zm-.05.05h.06v.77h-.06v-.77Zm.14,0v-.17h.23v.94h-.23v-.77Zm.27-.17h.02v.94h-.02v-.94Zm.54.32h-.21v-.32h.21v.32Zm0,.35h-.48v-.05h.48v.05Zm-.18-.15h-.02s-.01,0-.02,0v-.1s.01,0,.02,0h.02c.03.06.03.04,0,.09Zm-.15-.05s.02,0,0-.03c0,0,0,0-.01,0h.05s.02-.03.03-.04c0,0,0,0,0,0,.01,0,.02,0,.03.01h-.02v.12h.02s-.02,0-.03.01c0,0,0,0,0,0,0-.01-.02-.03-.03-.04h-.05s.02,0,.02,0c.01,0,0,0,0-.02Zm.05-.08h-.05s-.02.03-.03.04c0,0,0,0,0,0-.02-.01-.03-.02-.05-.04h-.05s.05,0,.02-.03h.14s0,.03.02.03Zm-.18,0s0,0,0,0c.01.02.06.05.06.07s-.04.05-.06.07c0,0,0,0-.01,0-.01-.01,0-.05,0-.07,0-.03,0-.06.02-.07Zm.02.15h.04s.03-.03.05-.04c0,.01.02.03.03.04h.05s-.04,0-.02.03h-.14s0-.03-.01-.03Zm.29.03s.03-.04.05-.06h.03s.03.04.05.06h-.12Zm.15-.06h-.02c-.03-.06-.03-.04,0-.09h.02s0,0,.02,0v.1s0,0-.02,0Zm-.08-.09h-.03s-.03-.04-.05-.06h.12s-.03.04-.05.06Zm-.17-.11h-.23v-.32h.23v.32Zm-.23.39h.23v.23h-.23v-.23Zm.27,0h.21v.23h-.21v-.23Zm.26,0v-.14s0-.04-.02-.05h.02v-.12h-.02s.03-.02.02-.05v-.36h.02v.94h-.02v-.23Zm.06-.71h.23v.94h-.23v-.94Zm.36.03h-.08v-.03h.08v.03Zm-.02.09h-.03s-.02-.03-.02-.05h.05v.05Zm-.06.05h.08v.77h-.08v-.77Zm.14,0v-.17h.24v.94h-.24v-.77Zm.29-.17h.02v.36s0,.04.02.05h-.02v.12h.02s-.03.02-.02.05v.36h-.02v-.94Zm.53.32h-.21v-.32h.21v.32Zm0,.35h-.47v-.05h.47v.05Zm-.18-.24c.03.06.03.04,0,.09h-.02v.02h-.02v-.12h.02v.02h.02Zm-.11.09c-.03-.06-.03-.04,0-.09h.02v-.02h.02v.12h-.02v-.02h-.02Zm-.05-.11h-.02v.02h-.03s-.03-.04-.05-.06h.12s-.02.03-.03.05Zm-.12.02h.02c.03.06.03.04,0,.09h-.02s0,0-.02,0v-.1s0,0,.02,0Zm.08.09h.03v.02h.02s.02.03.03.05h-.12s.03-.04.05-.06Zm.21.06s.02-.03.03-.05h.02v-.02h.03s.03.04.05.06h-.12Zm.15-.06h-.02c-.03-.06-.03-.04,0-.09h.02s0,0,.02,0v.1s0,0-.02,0Zm-.08-.09h-.03v-.02h-.02s-.02-.03-.03-.05h.12s-.03.04-.05.06Zm-.17-.11h-.21v-.32h.21v.32Zm-.21.39h.21v.23h-.21v-.23Zm.26,0h.21v.23h-.21v-.23Zm.26,0v-.14s0-.04-.02-.05h.02v-.12h-.02s.03-.02.02-.05v-.36h.02v.94h-.02v-.23Zm.06-.71h.24v.94h-.24v-.94Zm1.57,1.15h-.09v-.11h.09v.11Zm-.14,0h-.11v-.11h.11v.11Zm-.98-.11h.11v.11h-.11v-.11Zm.15,0h.09v.11h-.09v-.11Zm.17-.33h.23v.23h-.23v-.23Zm0-.09h.48v.05h-.48v-.05Zm.15-.15s.02,0,0-.03c0,0,0,0-.01,0h.05s.02-.03.03-.04c0,0,0,0,0,0,.01,0,.02,0,.03.01h-.02v.12h.02s-.02,0-.03.01c0,0,0,0,0,0,0-.01-.02-.03-.03-.04h-.05s.02,0,.02,0c.01,0,0,0,0-.02Zm.15.05h-.02s-.01,0-.02,0v-.1s.01,0,.02,0h.02c.03.06.03.04,0,.09Zm.06,0h.03s.03.04.05.06h-.12s.03-.04.05-.06Zm.11,0h-.02c-.03-.06-.03-.04,0-.09h.02s0,0,.02,0v.1s0,0-.02,0Zm-.08-.09h-.03s-.03-.04-.05-.06h.12s-.03.04-.05.06Zm-.2-.03h-.05s-.02.03-.03.04c0,0,0,0,0,0-.02-.01-.03-.02-.05-.04h-.05s.05,0,.02-.03h.14s0,.03.02.03Zm-.18,0s0,0,0,0c.01.02.06.05.06.07s-.04.05-.06.07c0,0,0,0-.01,0-.01-.01,0-.05,0-.07,0-.03,0-.06.02-.07Zm.02.15h.04s.03-.03.05-.04c0,.01.02.03.03.04h.05s-.04,0-.02.03h-.14s0-.03-.01-.03Zm.45.39h-.21v-.23h.21v.23Zm-.51.11h.11v.11h-.11v-.11Zm.15,0h.11v.11h-.11v-.11Zm.15,0h.09v.11h-.09v-.11Zm.14,0h.11v.11h-.11v-.11Zm.14-.11h-.02v-.36s0-.04-.02-.05h.02v-.12h-.02s.03-.02.02-.05v-.36h.02v.94Zm-.06-.62h-.21v-.32h.21v.32Zm-.26,0h-.23v-.32h.23v.32Zm-.32,0v.62h-.24v-.94h.24v.32Zm-.38-.15h.06v.69h-.06v-.69Zm.02-.09h.03s.02.03,0,.05h-.03s-.02-.03,0-.05Zm.05-.05h-.06v-.03h.06v.03Zm-.08,1.01h.09v.11h-.09v-.11Zm1.45.11h-.11v-.11h.11v.11Zm-.38-.21v-.94h.18v.06s.02.05.05.06v.05s-.05.03-.05.08v.05c0,.05,0,.05.05.08v.05s-.05.03-.05.08v.11h.05v.06s-.05.02-.05.06v.05c0,.05,0,.05.05.08v.11h-.23Zm.36-.08h-.02v-.02h-.05v.02h-.02v-.03h.08v.03Zm.02-.11h-.15v-.05h.15v.05Zm-.02-.11h-.08v-.06h.08v.06Zm.02-.12h-.15v-.05h.15v.05Zm-.02-.12h-.08v-.05h.08v.05Zm.02-.12h-.15v-.05h.15v.05Zm-.02-.12h-.08v-.05h.08v.05Zm.02-.11h-.15v-.06h.15v.06Zm-9.19-.88l.23-.23.23-.23c.07-.07.18-.13.23-.22h7.44c.05.09.16.16.23.23.08.08.15.16.23.23.08.07.16.15.23.22.07.07.18.15.23.23h-1.25c-.03-.06-.09-.08-.14-.13-.05-.05-.1-.08-.14-.13-.04-.04-.09-.09-.14-.13-.05-.04-.1-.07-.14-.13h-.03s-.06-.06-.08-.09h-.05s-.06.06-.08.09h-.02s-.05.04-.07.06c-.03.02-.05.05-.08.07-.05.04-.1.08-.14.12-.05.04-.1.09-.15.14-.04.03-.11.08-.14.13h-4.03s-.09-.09-.14-.13c-.05-.04-.09-.09-.14-.13-.05-.04-.09-.09-.14-.13-.05-.04-.1-.09-.15-.13h-.02s-.06-.06-.08-.09h-.05s-.06.06-.08.09h-.03c-.03.06-.09.09-.14.13-.05.04-.1.09-.14.13-.05.04-.1.09-.14.13-.04.04-.11.08-.14.13h-1.25c.05-.09.16-.16.23-.23Zm6.69.22h.02v.02h-.02v-.02Zm.42-.36h.03v.02h-.03v-.02Zm.03.09l.03.03s0,.07-.02.11h-.06s-.06-.07-.03-.11h.02s.01-.02.02-.03h.05Zm-.17.03s0,.08.02.11c.02.03.05.06.08.08h.11s.06-.04.08-.08c.02-.03.02-.07.02-.11h.02c.04.08.15.11.2.2h-.71c.04-.08.15-.11.2-.2h.02Zm-.23.24h.08v.02h-.08v-.02Zm.12,0h.09v.02h-.09v-.02Zm.14,0h.09v.02h-.09v-.02Zm.14,0h.08v.02h-.08v-.02Zm.12,0h.09v.02h-.09v-.02Zm.14,0h.09v.02h-.09v-.02Zm.14,0h.02v.02h-.02v-.02Zm.11,0s-.02-.03-.03-.05h-.02s-.08-.07-.11-.1c-.03-.03-.08-.06-.11-.1h-.02s-.01-.02-.02-.03h-.02s-.06-.04-.08-.08h-.02v-.02h-.02s-.07-.05-.09-.09h-.05s-.07.05-.09.09h-.02v.02h-.02s-.04.05-.06.08h-.03s-.01.02-.02.03h-.02c-.04.08-.15.11-.2.2h-.03s-.02.03-.03.05h-.02v.02h-.03c.03-.06.09-.09.14-.13.05-.04.1-.09.14-.13.05-.04.1-.09.14-.13.04-.04.11-.08.14-.13h.02s.05.04.07.06c.03.02.05.05.08.07.05.04.09.09.14.12.05.04.1.09.15.13.03.02.05.05.08.08.02.02.05.03.06.05h-.05v-.02h-.02Zm-6.31,0h.09v.02h-.09v-.02Zm.36-.36h.05v.02h-.05v-.02Zm.05.09l.03.03s0,.09-.03.11h-.06s-.05-.07-.02-.11l.03-.03h.05Zm-.17.03s0,.08.02.11c.02.03.05.06.08.08h.11s.06-.04.08-.08c.02-.03.02-.07.02-.11h.02c.05.08.15.11.2.2h-.71c.05-.08.15-.11.2-.2h.02Zm-.11.24h.09v.02h-.09v-.02Zm.14,0h.09v.02h-.09v-.02Zm.14,0h.08v.02h-.08v-.02Zm.12,0h.09v.02h-.09v-.02Zm.14,0h.09v.02h-.09v-.02Zm.14,0h.02v.02h-.02v-.02Zm.11,0s-.02-.03-.03-.05h-.02s-.07-.07-.11-.11c-.03-.03-.08-.05-.1-.09h-.02s-.01-.02-.02-.03h-.02s-.06-.04-.08-.08h-.02v-.02h-.02s-.07-.05-.09-.09h-.05s-.07.05-.09.09h-.02v.02h-.02s-.06.04-.08.08h-.02s-.01.02-.02.03h-.02s-.07.07-.11.1c-.03.03-.09.06-.11.1h-.02s-.02.03-.03.05h-.02v.02h-.05s.05-.04.07-.06c.03-.02.05-.05.08-.07.05-.04.1-.08.14-.12.05-.04.1-.09.15-.14.04-.03.11-.08.14-.13h.02s.09.09.14.13c.05.04.09.09.14.13.05.04.1.08.14.12.05.04.1.1.15.14h-.05v-.02h-.02Zm-2.51.08h9.37v.02H2.64v-.02Zm-.03.09h9.44c.03.06.1.1.14.15.05.05.11.08.14.14H2.34c.06-.11.21-.17.27-.29Zm-.33.38v-.03h10.11v.03H2.28Zm.27.06h.15v.06h-.15v-.06Zm.02.12h.06v.05h-.06v-.05Zm-.02.12h.15v.05h-.15v-.05Zm.02.12h.06v.05h-.06v-.05Zm-.02.12h.15v.05h-.15v-.05Zm.02.11h.06v.06h-.06v-.06Zm-.02.12h.15v.05h-.15v-.05Zm.02.12h.06v.03h-.06v-.03Zm.14.03v-.03s.05-.03.05-.08v-.05s-.02-.05-.05-.06v-.06h.05v-.11c0-.05,0-.05-.05-.08v-.05s.05-.03.05-.08v-.05c0-.05,0-.05-.05-.08v-.05s.05-.02.05-.06v-.06h.18v.94h-.23v-.08Zm-.21.18v.11h-.09v-.11h.09Zm-.14,0v.11h-.09v-.11h.09Zm-.14,0v.11h-.11v-.11h.11Zm-.15,0v.11h-.09v-.11h.09Zm-.26,0h.11v.11h-.11v-.11Zm2.32.11v-.11h6.37v.17h-6.37v-.06Zm-2.36,2.28h.17v.24h-.17v-.24Zm.23.33h-.27v-.05h.26v-.33h-.26v-.03h.27v.41Zm-.03-.51h-.05s.01-.02.02-.03v-.08h-.02s0-.04-.03-.05h-.08s-.03.02-.03.05h-.02v.08s.01.02.02.03h-.05v-.39h.23v.39Zm-.14-.11h.05s.02.05,0,.08h-.05s-.02-.05,0-.08Zm10.13.29h.17v.24h-.17v-.24Zm-.09-.57v.29h-.03s-.04-.03-.06-.05h-.03v-.02h-.06s-.04-.02-.06-.03h-.11v-.02h-.12v-.02h-.06v.02h-.12v.02h-.11s-.04.02-.06.03h-.05v.02h-.05v.02h-.03s-.02.02-.03.03h-.03v-.29h.05v-.03h.91v.03h.05Zm-.48.26h-.03v-.03h.05s-.01.02-.02.03Zm-.88-.26v.29h-.02s-.02-.02-.03-.03h-.03v-.02h-.05v-.02h-.05v-.02h-.08v-.02h-.09v-.02h-.12v-.02h-.08v.02h-.12v.02h-.09v.02h-.06v.02h-.06v.02h-.03s-.05.03-.08.05h-.02v-.29h.03v-.03h.91v.03h.05Zm-.47.26h-.03s-.01-.02-.02-.03h.05v.03Zm-.89-.26v.29h-.02s-.04-.03-.06-.05h-.03v-.02h-.06s-.04-.02-.06-.03h-.11v-.02h-.12v-.02h-.06v.02h-.12v.02h-.11s-.04.02-.06.03h-.05v.02h-.05s-.04.03-.06.05h-.03v-.29h.05v-.03h.91v.03h.03Zm-.47.26h-.03v-.03h.05s-.01.02-.02.03Zm-.88-.26v.29h-.02s-.04-.03-.06-.05h-.05v-.02h-.05v-.02h-.08v-.02h-.09v-.02h-.12v-.02h-.08v.02h-.12v.02h-.09v.02h-.06v.02h-.06v.02h-.03s-.05.03-.08.05h-.02v-.29h.03v-.03h.91v.03h.05Zm-.47.26h-.03s-.01-.02-.02-.03h.05v.03Zm-.89-.26v.29h-.02s-.04-.03-.06-.05h-.05v-.02h-.05s-.04-.02-.06-.03h-.11v-.02h-.12v-.02h-.06v.02h-.12v.02h-.11s-.04.02-.06.03h-.05v.02h-.05s-.04.03-.06.05h-.03v-.29h.05v-.03h.91v.03h.03Zm-.47.26h-.03v-.03h.05s-.01.02-.02.03Zm-.88-.26v.29h-.02s-.04-.03-.06-.05h-.05v-.02h-.05v-.02h-.08v-.02h-.09v-.02h-.12v-.02h-.08v.02h-.12v.02h-.09v.02h-.08v.02h-.05v.02h-.05s-.04.03-.06.05h-.02v-.29h.03v-.03h.91v.03h.05Zm-.47.26h-.05v-.03h.05v.03Zm7.52-.44h-.23v-.17h.23v.17Zm0-.21h-.23v-.08h.23v.08Zm0-.12h-.23v-.08h.23v.08Zm-.29-.08v.41h-1v-.42h1v.02Zm-9.41.24h.24v.17h-.24v-.17Zm0-.12h.24v.08h-.24v-.08Zm0-.12h.24v.08h-.24v-.08Zm-.42-.11h.36v.05h-.36v-.05Zm.42.05v-.06h.24v.08h-.24v-.02Zm-.42-.2v-.09h.08v.02s.02.01.03.02h-.03v.03h.02s-.02.01-.02.03v.02h-.08v-.02Zm0-.24v-.39h.36v.45h-.36v-.06Zm9.31-.38h-.09v.02h-.12v.02h-.08v.02h-.05v.02h-.05v.02h-.05s-.04.03-.05.05h-.02v-.14h.48v.02Zm.24.06s.08.03.12.05h-.06v-.02h-.09v-.02h-.12v-.03h.03v.02h.12Zm.27.18v.2h-1v-.2s.03-.03.05-.05h.03s.05-.03.08-.05h.08v-.02h.09v-.02h.36v.02h.09s.11.03.15.06h.03s.03.04.05.05Zm0,.33v.06h-.11v-.11h.11v.05Zm0,.24h-1v-.05h1v.05Zm-1.06-.05v.06h-.24v-.08h.24v.02Zm0,.18h-.24v-.08h.24v.08Zm0,.12h-.24v-.08h.24v.08Zm-1.43-.21v.39h-.08v-1.24h.08v.85Zm-1.36,0v.39h-.06v-1.24h.06v.85Zm-1.34,0v.39h-.08v-1.24h.08v.85Zm-1.36,0v.39h-.06v-1.24h.06v.85Zm-1.27.09h-.23v-.08h.23v.08Zm0,.12h-.23v-.08h.23v.08Zm-.23-.24v-.08h.23v.08h-.23Zm-1.06-.06h.98v.05h-.98v-.05Zm0-.15v-.09h.09v.02s.02.01.03.02h-.03v.03h.02s-.02.01-.02.03v.02h-.09v-.02Zm1.06-.18v-.06h.23v.08h-.23v-.02Zm0-.2h.23v.09h-.23v-.09Zm0-.12h.23v.08h-.23v-.08Zm1.36.51h-.15v-.11h.15v.11Zm-1.06-.02v-.09h.15v.11h-.15v-.02Zm.86.02h-.14v-.11h.14v.11Zm-.18,0h-.14v-.11h.14v.11Zm-.18,0h-.12v-.11h.12v.11Zm-.18,0h-.12v-.11h.12v.11Zm-.39-.14v.08h-.23v-.08h.23Zm-.3.12v.02h-.09v-.02s-.01-.03-.03-.03h.03v-.02h-.03s.04,0,.03-.03v-.02h.09v.09Zm-.8-.09h.02v.02h-.02v-.02Zm.05.05s0,0,.02,0h0s-.02,0-.02,0Zm-.09,0h0s0,0,0,0Zm.05.04h.03v.02h-.03v-.02Zm.11,0s-.01-.03-.03-.03h.03v-.02h-.03s.04,0,.03-.03v-.02h.11v.02s.01.03.03.03h-.03v.02h.03s-.04,0-.03.03v.02h-.11v-.02Zm.24-.04s0,0,.02,0h0s-.02,0-.02,0Zm-.03-.04h-.02v-.02h.02v.02Zm-.06.04h0s.02,0,.02,0,0,0-.02,0Zm.05.03h.02v.02h-.02v-.02Zm.11,0s-.01-.03-.03-.03h.03v-.02h-.03s.04,0,.03-.03v-.02h.11v.02s.02.01.03.02h-.03v.03h.02s-.02.01-.02.03v.02h-.11v-.02Zm.24-.04s0,0,.02,0h0s-.02,0-.02,0Zm-.03-.04h-.02v-.02h.02v.02Zm-.06.03h0s0,0,0,0Zm.05.04h.03v.02h-.03v-.02Zm.27.02v-.02h.23v.09h-.23v-.08Zm1.36.18h-1.06v-.05h1.06v.05Zm1.36-.18h-.2v-.11h.2v.11Zm-.24,0h-.14v-.11h.14v.11Zm-.18,0h-.14v-.11h.14v.11Zm-.18,0h-.14v-.11h.14v.11Zm-.18,0h-.14v-.11h.14v.11Zm-.18,0h-.18v-.11h.18v.11Zm-.18.14h1.15v.05h-1.15v-.05Zm2.49-.14h-.18v-.11h.18v.11Zm-.23,0h-.14v-.11h.14v.11Zm-.18,0h-.14v-.11h.14v.11Zm-.18,0h-.14v-.11h.14v.11Zm-.18,0h-.14v-.11h.14v.11Zm-.18,0h-.2v-.11h.2v.11Zm-.2.14h1.15v.05h-1.15v-.05Zm2.51-.14h-.2v-.11h.2v.11Zm-.24,0h-.14v-.11h.14v.11Zm-.18,0h-.14v-.11h.14v.11Zm-.18,0h-.14v-.11h.14v.11Zm-.18,0h-.14v-.11h.14v.11Zm-.18,0h-.18v-.11h.18v.11Zm-.18.14h1.15v.05h-1.15v-.05Zm2.42-.2v.06h-.15v-.11h.15v.05Zm-1.07-.05h.15v.11h-.15v-.11Zm.88.11h-.14v-.11h.14v.11Zm-.18,0h-.14v-.11h.14v.11Zm-.18,0h-.14v-.11h.14v.11Zm-.18,0h-.14v-.11h.14v.11Zm.74.18h-1.07v-.05h1.07v.05Zm.06-.11v-.09h.24v.09h-.24Zm.3-.14v-.05h.11v.02s.01.03.03.03h-.03v.02h.03s-.04,0-.03.03v.02h-.11v-.06Zm.82-.03h-.02v-.02h.02v.02Zm0,.09h-.03v-.02h.03v.02Zm-.05-.05s-.02.02-.03.02v-.04s.03.01.03.02Zm-.08-.04s.03,0,.04.02h-.04v.05h.04s-.04.01-.04.02v.02h-.11v-.02s-.01-.03-.03-.03h.03v-.02h-.03s.04,0,.03-.03v-.02h.11v.02Zm-.21.08h.03v.02h-.03v-.02Zm.05-.04s0,0,.02,0h0s-.02,0-.02,0Zm-.03-.04h-.02v-.02h.02v.02Zm-.09,0v.09h-.11v-.02s-.03,0-.04-.02h.04v-.05h-.04s.04-.01.04-.02v-.02h.11v.02Zm-.24.04s0,0-.02,0h0s.02,0,.02,0Zm.02.04h.03v.02h-.03v-.02Zm.08-.06v.04s-.03-.01-.03-.02c0,0,.02-.02.03-.02Zm-.05-.02h-.03v-.02h.03v.02Zm-.27-.02v.05h-.24v-.08h.24v.03Zm-.24-.08v-.08h.24v.08h-.24Zm0-.21h.24v.09h-.24v-.09Zm0-.12h.24v.08h-.24v-.08Zm.59-.05v-.02h.12v-.02h.03v.03h-.14v.02h-.11v.02h-.05s.04-.02.06-.03h.08Zm.23,0h-.03v-.03h.05s-.01.02-.02.03Zm-.38.04h0s-.02,0-.02,0c0,0,.01,0,.02,0Zm.78.02h-.02v-.02h.02v.02Zm-.05-.02h-.02v-.02h.02v.02Zm-.94-.05h-.24v-.09h.24v.09Zm-.3,0v.36h-1.07v-.42h.05v-.03h1.03v.09Zm-1.27-.06v.42h-1.15v-.42h.05v-.03h1.06v.03h.05Zm-1.36,0v.42h-1.15v-.42h.05v-.03h1.06v.03h.05Zm-1.34,0v.42h-1.15v-.42h.05v-.03h1.06v.03h.05Zm-1.36,0v.42h-1.06v-.45h1.01v.03h.05Zm-1.13.06h-.23v-.09h.23v.09Zm-.3,0v.36h-.98v-.45h.98v.09Zm-1.28.17h.24v.09h-.24v-.09Zm0-.12h.24v.08h-.24v-.08Zm.24-.05h-.24v-.09h.24v.09Zm-.24.36v-.06h.24v.08h-.24v-.02Zm.24.06v.08h-.24v-.08h.24Zm-.3.12v.02h-.09v-.02s-.01-.03-.03-.03h.03v-.02h-.03s.04,0,.03-.03v-.02h.09v.09Zm-.2-.09h.02v.02h-.02v-.02Zm.05.05s0,0,.02,0h0s-.02,0-.02,0Zm-.09,0h0s0,0,0,0Zm.05.04h.03v.02h-.03v-.02Zm.26.02v-.02h.24v.09h-.24v-.08Zm.3.48v-.26h.98v.42h-.98v-.17Zm1.06,0h.23v.17h-.23v-.17Zm.3,0v-.26h1.06v.39h-.05v.03h-1.01v-.17Zm1.27.14v-.39h1.15v.39h-.05v.03h-1.06v-.03h-.05Zm1.34,0v-.39h1.15v.39h-.05v.03h-1.06v-.03h-.05Zm1.36,0v-.39h1.15v.39h-.05v.03h-1.06v-.03h-.05Zm1.34,0v-.39h1.07v.42h-1.03v-.03h-.05Zm1.13-.14h.24v.17h-.24v-.17Zm1.59-.29h-.23v-.08h.23v.08Zm0-.12h-.23v-.09h.23v.09Zm0-.14h-.23v-.08h.23v.08Zm0-.12h-.23v-.08h.23v.08Zm0-.12h-.23v-.09h.23v.09Zm0-.14h-.23v-.08h.23v.08Zm-.32-.09s-.04-.03-.06-.05h-.05v-.02h-.06v-.02h-.06v-.02h-.12v-.02h-.09v-.02h.47v.12h-.03Zm.32-.03h-.23v-.09h.23v.09Zm-10.54-.17v-.02h10.66v.02H1.63Zm.12.08h.23v.09h-.23v-.09Zm0,.14h.23v.08h-.23v-.08Zm0,.12h.23v.09h-.23v-.09Zm0,.14h.23v.08h-.23v-.08Zm0,.12h.23v.08h-.23v-.08Zm0,.12h.23v.09h-.23v-.09Zm0,.14h.23v.08h-.23v-.08Zm.66.11v.42h-.36v-.42h.36Zm-.66.02h.23v.08h-.23v-.08Zm0,.12h.23v.08h-.23v-.08Zm0,.12h.23v.17h-.23v-.17Zm-.12.26v-.02h10.66v.02H1.63Zm2.1.06v.03h.03v.29h-.02s-.02-.02-.03-.03h-.03v-.02h-.05v-.02h-.05v-.02h-.08v-.02h-.09v-.02h-.12v-.02h-.08v.02h-.11v.02h-.11v.02h-.06v.02h-.06v.02h-.03s-.05.02-.06.05h-.03v-.29h.05v-.03h.91Zm-.44.29h-.03s-.01-.02-.02-.03h.05v.03Zm-.56.65h-.27v-.41h.27v.41Zm-.08-.51s.01-.02.02-.03c.02-.02.02-.05,0-.08-.01-.02-.02-.03-.03-.05h-.09s-.02.03-.03.05c-.02.02-.02.05-.02.08h.02v.03h-.05v-.39h.24v.39h-.06Zm-.08-.11h.03s.03.03.03.04c0-.03-.02.05-.02.04h-.06s0-.04.02-.08Zm.2.08s.03-.03.05-.04c0,.02-.02.03-.04.04h-.02Zm.11-.06v.02h-.04s.03-.02.04-.03h.05s.07-.03.11-.05h.09v-.02h.08v.03h-.14v.02h-.09s-.03.02-.05.03h-.05Zm.79.02v-.02h-.05s-.04-.02-.06-.03h-.09v-.02h-.14v-.03h.08v.02h.09v.02h.08s.03.02.05.03h.03s.03.02.04.03h-.03Zm.04,0s.04.02.05.04h-.02s-.02-.03-.04-.04Zm.32.49h-.17v-.24h.17v.24Zm.05-.29h-.26v.33h.26v.05h-.27v-.41h.27v.03Zm-.06-.14s.01-.02.02-.03v-.08h-.02s0-.04-.03-.05h-.08s-.03.02-.03.05h-.02v.08s.01.02.02.03h-.05v-.39h.23v.39h-.05Zm-.09-.11h.05s.02.05,0,.08h-.05s-.02-.05,0-.08Zm.21.08s.03-.03.05-.04c-.01.01-.03.02-.04.04h-.02Zm.2-.09s-.04.02-.06.03h-.03v.02h-.04s.03-.02.04-.03h.03s.08-.03.12-.05h.09v-.02h.08v.03h-.14v.02h-.09Zm.68.05v-.02h-.03l-.06-.03h-.09v-.02h-.14v-.03h.08v.02h.09s.08.03.12.05h.03s.03.02.04.03h-.04Zm.05,0s.04.02.05.04h-.02s-.02-.03-.04-.04Zm.37.58h-.27v-.41h.27v.41Zm-.08-.51s.01-.02.02-.03c.02-.02.02-.05,0-.08-.01-.02-.02-.03-.03-.05h-.09s-.02.03-.03.05c-.02.02-.02.05,0,.08,0,.01.01.02.02.03h-.06v-.39h.24v.39h-.06Zm-.08-.11h.03s.03.03.03.04c0-.03-.02.05-.02.04h-.06s0-.04.02-.08Zm.3.02v.02h-.03s-.05.03-.06.06h-.02s.07-.06.11-.09h.05s.07-.03.11-.05h.11v-.02h.06s.01.02.02.03h-.15v.02h-.08l-.06.03h-.05Zm.82.02h-.03v-.02h-.05s-.04-.02-.06-.03h-.08v-.02h-.14v-.03h.06v.02h.11s.07.03.11.05h.05s.06.03.08.06h-.02s-.02-.02-.03-.03Zm.17.26h.17v.24h-.17v-.24Zm.23.33h-.27v-.05h.26v-.33h-.26v-.03h.27v.41Zm-.08-.51s.01-.02.02-.03v-.08h-.02s0-.04-.03-.05h-.08s-.03.02-.03.05h-.02v.08s.01.02.02.03h-.05v-.39h.23v.39h-.05Zm-.09-.11h.05s.02.05,0,.08h-.05s-.02-.05,0-.08Zm.21.08s.03-.03.05-.04c0,.02-.02.03-.04.04h-.02Zm.2-.09s-.03.02-.05.03h-.05v.02h-.04s.03-.02.04-.03h.03s.08-.03.12-.05h.09v-.02h.08v.03h-.14v.02h-.09Zm.65.03l-.06-.03h-.09v-.02h-.14v-.03h.08v.02h.09s.08.03.12.05h.03s.03.02.04.03h-.03v-.02h-.05Zm.08.02s.04.02.05.04h-.02s-.02-.03-.04-.04Zm.37.58h-.27v-.41h.27v.41Zm-.08-.51s.01-.02.02-.03h.02s0-.05-.02-.08c-.01-.02-.02-.03-.03-.05h-.09s-.02.03-.03.05c-.02.02-.02.05,0,.08,0,.01.01.02.02.03h-.06v-.39h.24v.39h-.06Zm-.08-.11h.03s.03.03.03.04c0-.03-.02.05-.02.04h-.06s0-.04.02-.08Zm.3.02v.02h-.03s-.05.03-.06.06h-.02s.07-.06.11-.09h.05s.07-.03.11-.05h.11v-.02h.08v.03h-.15v.02h-.08l-.06.03h-.05Zm.82.02h-.03v-.02h-.05l-.06-.03h-.08v-.02h-.14v-.03h.06v.02h.11s.07.03.11.05h.05s.06.03.08.06h-.02s-.02-.02-.03-.03Zm.17.26h.17v.24h-.17v-.24Zm.23.33h-.27v-.05h.26v-.33h-.26v-.03h.27v.41Zm-.08-.51s.01-.02.02-.03v-.08h-.02s0-.04-.03-.05h-.08s-.02.03-.03.05h-.02v.08h.02v.03h-.05v-.39h.23v.39h-.05Zm-.09-.11h.05s.02.05,0,.08h-.05s-.02-.05,0-.08Zm.21.08s.03-.03.05-.04c0,.02-.02.03-.04.04h-.02Zm.11-.06v.02h-.04s.03-.02.04-.03h.05s.07-.03.11-.05h.09v-.02h.08v.03h-.14v.02h-.09s-.03.02-.05.03h-.05Zm.74,0s-.04-.02-.06-.03h-.09v-.02h-.14v-.03h.08v.02h.09v.02h.08s.03.02.05.03h.03s.03.02.04.03h-.03v-.02h-.05Zm.08.02s.04.02.05.04h-.02s-.02-.03-.04-.04Zm.32.49h-.17v-.24h.17v.24Zm.05-.29h-.26v.33h.26v.05h-.27v-.41h.27v.03Zm-.06-.14v-.03h.02s0-.05-.02-.08c-.01-.02-.02-.03-.03-.05h-.08s-.04.03-.05.05c0,.03-.03.05,0,.08,0,.01.01.02.02.03h-.06v-.39h.24v.39h-.05Zm-.09-.11h.03s.05.05.02.08h-.06s0-.05.02-.08Zm.3.02v.02h-.03s-.05.03-.06.06h-.02s.07-.06.11-.09h.05s.03-.02.05-.03h.08v-.02h.09v-.02h.08v.03h-.15v.02h-.08s-.04.02-.06.03h-.05Zm.82.02h-.03v-.02h-.05l-.06-.03h-.08v-.02h-.14v-.03h.08v.02h.09s.07.03.11.05h.05s.07.05.11.08h-.02s-.04-.03-.06-.05Zm.14.05v-.36h.23v.39h-.05s.01-.02.02-.03v-.08s-.03-.03-.05-.05h-.08s-.02.03-.03.05h-.02v.08h.02v.03h-.05v-.03Zm.09-.08h.05s.02.05,0,.08h-.05s-.02-.05,0-.08Zm-.11.21h.27v.41h-.27v-.05h.26v-.33h-.26v-.03Z"/><path class="cls-1" d="m17.22,15.21v.56h.44v-.6h-.44v.05Zm.41,0v.51h-.36v-.51h.36Z"/><path class="cls-1" d="m14.37,15.21v.56h.44v-.6h-.44v.05Zm.41,0v.51h-.36v-.51h.36Z"/><path class="cls-1" d="m12.98,15.21v.56h.3v-.6h-.3v.05Zm.26,0v.51h-.21v-.51h.21Z"/><path class="cls-1" d="m2.79,15.13v.15h.05s.09-.03.12-.06h.05s.08-.04.12-.06h.03v-.02h.05v.05s.02.03.03.05h.09s.02-.03.02-.05h.02v-.05h.03v.02h.05c.07.06.19.08.27.12h.05s-.01-.05-.04-.06h.04v-.11h-.41s-.01-.02-.02-.03h-.09s-.01.02-.02.03h-.42v.02Zm.08.09h-.03v-.06h.15s-.09.03-.12.06Zm.83,0s0,0-.02,0c-.04-.01-.08-.03-.12-.05h.14v.06Zm-.39-.07s0,.03-.02.05h-.05v-.06h.05v.02h.02Z"/><path class="cls-1" d="m28.82,15.09h-.11s-.01.02-.02.03h-.41v.17h.05s.08-.04.12-.06h.05s.07-.03.11-.06h.05v-.02h.03v.05h.02s0,.04.03.05h.08s.03-.02.03-.05h.02v-.05h.03v.02h.05s.07.03.11.06h.05s.08.04.12.06h.05v-.17h-.41s-.01-.02-.02-.03Zm-.45.14h-.03v-.06h.14s-.07.03-.11.06Zm.83,0h-.03s-.07-.03-.11-.06h.14v.06Zm-.39-.08s0,.03-.02.05h-.05s-.02-.03-.02-.05h.02v-.02h.05v.02h.02Z"/><path class="cls-1" d="m11.43,15.09h-.09s-.01.02-.02.03h-.39v.11h.04s-.04.02-.04.06h.05c.07-.06.19-.08.27-.12h.05v-.02h.02v.05s.02.03.03.05h.09s.02-.03.03-.05v-.06h.02s.03.02.05.03h.03c.08.04.21.06.27.12h.05c0-.06,0-.05-.06-.07-.04-.01-.08-.03-.12-.05h.15v.06h.03v-.11h-.42s-.01-.02-.02-.03Zm-.44.13s0,0-.02,0v-.06h.14s-.08.04-.12.05Zm.41-.02h-.03s-.02-.03-.02-.05h.02v-.02h.05s0,.04-.02.06Z"/><path class="cls-1" d="m30.33,13.47v-.08h-.05v-.11h.05v-.11h-.06s-.06-.06-.08-.09h-.03s-.06.06-.08.09h-.54v-.18h-.02v-.05h.02v-.18h-.02v-.05h.02v-.2h-.02v-.05h.02v-.18h-.02v-.06h.3v-.09h.05s-.03-.04-.05-.06h-.02c-.03-.05-.1-.09-.14-.14-.05-.05-.11-.09-.14-.15h-.02s-.05-.04-.05-.08v-.02h.03s-.02-.04-.03-.06h-.02c-.05-.09-.16-.16-.23-.23-.08-.08-.15-.15-.23-.23-.08-.08-.15-.15-.23-.23-.07-.07-.18-.15-.23-.23h-.02s-.04-.05-.06-.08h-7.52s-.04.05-.06.08h-.02c-.05.09-.16.16-.23.23-.08.08-.15.15-.23.23-.08.08-.15.15-.23.23-.07.07-.18.15-.23.23h-.02s-.03.04-.05.06h.05v.02s-.04.05-.06.08h-.02c-.06.11-.21.17-.27.29h-.03s-.02.04-.03.06h.03v.09h.32v.06h-.02v.18h.02v.05h-.02v.2h.02v.05h-.02v.18h.02v.05h-.02v.18h-.05v.11h.03v.11h-.03v.08h-.15v.15h.12v1.3h-.12v.15h.08v.03h.05v.39h-.05v.11h.02v.41h-.02s0,.02-.02.03c0,.02-.01.02-.02.04,0,.03,0,.06,0,.08h.5s0-.05,0-.08c0-.04-.01-.04-.03-.08h-.02v-.41h.02v-.11h.03s.01-.02.02-.03h.03s.07-.03.11-.05h.08v-.02h.39v.02h.08s.07.03.11.05h.03l.03.03h.02v.11h.03v.41h-.03s-.02.1-.02.15h.5s0-.05,0-.08c0-.04-.01-.04-.03-.08h-.02v-.41h.02v-.11h.02s.02-.02.03-.03h.03s.06-.03.09-.05h.09v-.02h.39v.02h.08s.09.03.12.06h.03v.02h.02s.02.07.02.11h.02v.41h-.02s0,.02-.02.03c0,.02-.01.02-.02.04,0,.03,0,.06,0,.08h.5s0-.05,0-.08c0-.03-.02-.05-.02-.08h-.03v-.41h.02v-.11h.03s.01-.02.02-.03h.03s.07-.03.11-.05h.08v-.02h.39v.02h.08s.07.03.11.05h.03l.03.03h.02v.11h.03v.41h-.03s-.02.1-.02.15h.5s0-.05,0-.08c0-.04-.01-.04-.03-.08h-.02v-.41h.02v-.11h.02l.03-.03h.03s.06-.03.09-.05h.09v-.02h.39v.02h.08s.09.04.14.06h.02v.02h.02s.02.07.02.11h.02v.41h-.02s0,.02-.02.03c0,.02-.01.02-.02.04,0,.03,0,.06,0,.08h.5s0-.05,0-.08c0-.03-.02-.05-.02-.08h-.03v-.41h.02v-.11h.03s.01-.02.02-.03h.05s.06-.03.09-.05h.08v-.02h.39v.02h.09s.06.03.09.05h.03s.02.02.03.03h.02s.02.07.02.11h.02v.41h-.03s-.02.1-.02.15h.5s0-.05,0-.08c0-.04-.01-.04-.03-.08h-.02v-.41h.02v-.11h.02l.03-.03h.03s.06-.03.09-.05h.09v-.02h.39v.02h.08s.09.04.14.06h.02v.02h.03v.11h.02v.41h-.02s0,.02-.02.03c0,.02-.01.02-.02.04,0,.03,0,.06,0,.08h.5s0-.05,0-.08c0-.03-.02-.05-.02-.08h-.03v-.41h.03v-.11h.02l.03-.03h.03s.06-.03.09-.05h.08v-.02h.41v.02h.08s.06.03.09.05h.03s.02.02.03.03h.02s.02.07.02.11h.02v.41h-.03s-.02.1-.02.15h.5s0-.05,0-.08c0-.04-.01-.04-.03-.08h-.02v-.41h.02v-.11h-.05v-.39h.05v-.03h.29v.03h.05v.39h-.05v.11h.02v.41h-.02s0,.02-.02.03c0,.02-.01.02-.02.04,0,.03,0,.06,0,.08h.5s0-.05,0-.08c0-.03-.02-.05-.02-.08h-.03v-.41h.02v-.11h-.03v-.39h.03v-.03h.08v-.15h-.11v-1.3h.11v-.15h-.14Zm-8.95-.08h-.09v-.11h.09v.11Zm-1.28-.11h.11v.11h-.11v-.11Zm.15,0h.09v.11h-.09v-.11Zm.11-1.04h.02v.94h-.02v-.94Zm1.01.03h-.06v-.03h.06v.03Zm0,.83h-.06v-.69h.06v.69Zm-.02-.74h-.03v-.05h.03s.02.03,0,.05Zm-.11-.09v.91h-.24v-.94h.24v.03Zm-.29.91h-.02v-.36s0-.04-.02-.05h.02v-.12h-.02s.03-.02.02-.05v-.36h.02v.94Zm-.54-.23h.23v.23h-.23v-.23Zm0-.09h.48v.05h-.48v-.05Zm.15-.15s.02,0,0-.03c0,0,0,0-.01,0h.05s.02-.03.03-.04c0,0,0,0,0,0,.01,0,.02,0,.03.01h-.02v.12h.02s-.02,0-.03.01c0,0,0,0,0,0,0-.01-.02-.03-.03-.04h-.05s.02,0,.02,0c.01,0,0,0,0-.02Zm.15.05h-.02s-.01,0-.02,0v-.1s.01,0,.02,0h.02c.03.06.03.04,0,.09Zm.06,0h.03s.03.04.05.06h-.12s.03-.04.05-.06Zm.11,0h-.02c-.03-.06-.03-.04,0-.09h.02s0,0,.02,0v.1s0,0-.02,0Zm-.08-.09h-.03s-.03-.04-.05-.06h.12s-.03.04-.05.06Zm-.2-.03h-.05s-.02.03-.03.04c0,0,0,0,0,0-.02-.01-.03-.02-.05-.04h-.05s.05,0,.02-.03h.14s0,.03.02.03Zm-.18,0s0,0,0,0c.01.02.06.05.06.07s-.04.05-.06.07c0,0,0,0-.01,0-.01-.01,0-.05,0-.07,0-.03,0-.06.02-.07Zm.02.15h.04s.03-.03.05-.04c0,.01.02.03.03.04h.05s-.04,0-.02.03h-.14s0-.03-.01-.03Zm.24.17h.21v.23h-.21v-.23Zm.21-.39h-.21v-.32h.21v.32Zm-.26,0h-.23v-.32h.23v.32Zm-.26.72h.11v.11h-.11v-.11Zm.15,0h.11v.11h-.11v-.11Zm.15,0h.09v.11h-.09v-.11Zm.14,0h.11v.11h-.11v-.11Zm.15,0h.11v.11h-.11v-.11Zm.15,0h.09v.11h-.09v-.11Zm.32-.18v-.86h.23v.94h-.23v-.08Zm.27-.86h.02v.36s0,.04.02.05h-.02v.12h.02s-.03.02-.02.05v.36h-.02v-.94Zm.53.32h-.21v-.32h.21v.32Zm0,.35h-.47v-.05h.47v.05Zm-.18-.24c.03.06.03.04,0,.09h-.02v.02h-.02v-.12h.02v.02h.02Zm-.11.09c-.03-.06-.03-.04,0-.09h.02v-.02h.02v.12h-.02v-.02h-.02Zm-.05-.11h-.02v.02h-.03s-.03-.04-.05-.06h.12s-.02.03-.03.05Zm-.12.02h.02c.03.06.03.04,0,.09h-.02s0,0-.02,0v-.1s0,0,.02,0Zm.08.09h.03v.02h.02s.02.03.03.05h-.12s.03-.04.05-.06Zm.21.06s.02-.03.03-.05h.02v-.02h.03s.03.04.05.06h-.12Zm.15-.06h-.02c-.03-.06-.03-.04,0-.09h.02s0,0,.02,0v.1s0,0-.02,0Zm-.08-.09h-.03v-.02h-.02s-.02-.03-.03-.05h.12s-.03.04-.05.06Zm-.17-.11h-.21v-.32h.21v.32Zm-.21.39h.21v.23h-.21v-.23Zm.26,0h.21v.23h-.21v-.23Zm.26,0v-.14s0-.04-.02-.05h.02v-.12h-.02s.03-.02.02-.05v-.36h.02v.94h-.02v-.23Zm.06-.71h.24v.94h-.24v-.94Zm.38.03h-.08v-.03h.08v.03Zm-.02.09h-.03s-.02-.03,0-.05h.03v.05Zm-.06.05h.08v.77h-.08v-.77Zm.14,0v-.17h.24v.94h-.24v-.77Zm.82.15h-.21v-.32h.21v.32Zm0,.35h-.48v-.05h.48v.05Zm-.18-.15h-.02s-.01,0-.02,0v-.1s.01,0,.02,0h.02c.03.06.03.04,0,.09Zm-.15-.05s.02,0,0-.03c0,0,0,0-.01,0h.05s.02-.03.03-.04c0,0,0,0,0,0,.01,0,.02,0,.03.01h-.02v.12h.02s-.02,0-.03.01c0,0,0,0,0,0,0-.01-.02-.03-.03-.04h-.05s.02,0,.02,0c.01,0,0,0,0-.02Zm.05-.08h-.05s-.02.03-.03.04c0,0,0,0,0,0-.02-.01-.03-.02-.05-.04h-.05s.05,0,.02-.03h.14s0,.03.02.03Zm-.18,0s0,0,0,0c.01.02.06.05.06.07s-.04.05-.06.07c0,0,0,0-.01,0-.01-.01,0-.05,0-.07,0-.03,0-.06.02-.07Zm.02.15h.04s.03-.03.05-.04c0,.01.02.03.03.04h.05s-.04,0-.02.03h-.14s0-.03-.01-.03Zm.29.03s.03-.04.05-.06h.03s.03.04.05.06h-.12Zm.15-.06h-.02c-.03-.06-.03-.04,0-.09h.02s0,0,.02,0v.1s0,0-.02,0Zm-.08-.09h-.03s-.03-.04-.05-.06h.12s-.03.04-.05.06Zm-.17-.11h-.23v-.32h.23v.32Zm-.23.39h.23v.23h-.23v-.23Zm.27,0h.21v.23h-.21v-.23Zm.26,0v-.14s0-.04-.02-.05h.02v-.12h-.02s.03-.02.02-.05v-.36h.02v.94h-.02v-.23Zm.06-.71h.24v.94h-.24v-.94Zm.36.03h-.06v-.03h.06v.03Zm-.02.09h-.03v-.05h.03s.02.03,0,.05Zm-.05.05h.06v.77h-.06v-.77Zm.14,0v-.17h.23v.94h-.23v-.77Zm.27-.17h.02v.36s0,.04.02.05h-.02v.12h.02s-.03.02-.02.05v.36h-.02v-.94Zm.54.32h-.23v-.32h.23v.32Zm0,.23h-.02s-.01-.02-.02-.03h-.02c-.03-.06-.03-.04,0-.09h.02s.01-.02.02-.03h.02v.15Zm0,.12h-.48v-.05h.48v.05Zm-.2-.24c.03.06.03.04,0,.09h-.02v.02h-.02v-.12h.02v.02h.02Zm-.11.09c-.03-.06-.03-.04,0-.09h.02v-.02h.02v.12h-.02v-.02h-.02Zm-.05-.11h-.02v.02h-.03s-.03-.04-.05-.06h.12s-.02.03-.03.05Zm-.12.02h.02c.03.06.03.04,0,.09h-.02s0,0-.02,0v-.1s0,0,.02,0Zm.08.09h.03v.02h.02s.02.03.03.05h-.12s.03-.04.05-.06Zm.21.06s.02-.03.03-.05h.02v-.02h.03s.01.02.02.03h.02s.01.02.02.03h-.12Zm.11-.18h-.02s-.01.02-.02.03h-.03v-.02h-.02s-.02-.03-.03-.05h.12s-.01.02-.02.03Zm-.2-.08h-.21v-.32h.21v.32Zm-.21.39h.21v.23h-.21v-.23Zm.26,0h.23v.23h-.23v-.23Zm.32,0v-.71h.24v.94h-.24v-.23Zm.38-.68h-.06v-.03h.06v.03Zm-.02.09h-.03s-.02-.03,0-.05h.03v.05Zm-.05.05h.06v.77h-.06v-.77Zm.12,0v-.17h.24v.94h-.24v-.77Zm.82.15h-.21v-.32h.21v.32Zm0,.35h-.48v-.05h.48v.05Zm-.18-.15h-.02s-.01,0-.02,0v-.1s.01,0,.02,0h.02c.03.06.03.04,0,.09Zm-.15-.05s.02,0,0-.03c0,0,0,0-.01,0h.05s.02-.03.03-.04c0,0,0,0,0,0,.01,0,.02,0,.03.01h-.02v.12h.02s-.02,0-.03.01c0,0,0,0,0,0,0-.01-.02-.03-.03-.04h-.05s.02,0,.02,0c.01,0,0,0,0-.02Zm.05-.08h-.05s-.02.03-.03.04c0,0,0,0,0,0-.02-.01-.03-.02-.05-.04h-.05s.05,0,.02-.03h.14s0,.03.02.03Zm-.18,0s0,0,0,0c.01.02.06.05.06.07s-.04.05-.06.07c0,0,0,0-.01,0-.01-.01,0-.05,0-.07,0-.03,0-.06.02-.07Zm.02.15h.04s.03-.03.05-.04c0,.01.02.03.03.04h.05s-.04,0-.02.03h-.14s0-.03-.01-.03Zm.29.03s.03-.04.05-.06h.03s.03.04.05.06h-.12Zm.15-.06h-.02c-.03-.06-.03-.04,0-.09h.02s0,0,.02,0v.1s0,0-.02,0Zm-.08-.09h-.03s-.03-.04-.05-.06h.12s-.03.04-.05.06Zm-.17-.11h-.23v-.32h.23v.32Zm-.23.39h.23v.23h-.23v-.23Zm.27,0h.21v.23h-.21v-.23Zm.26,0v-.14s0-.04-.02-.05h.02v-.12h-.02s.03-.02.02-.05v-.36h.02v.94h-.02v-.23Zm.06-.71h.24v.94h-.24v-.94Zm.36.03h-.06v-.03h.06v.03Zm-.02.09h-.03v-.05h.03s.02.03,0,.05Zm-.05.05h.06v.77h-.06v-.77Zm.14,0v-.17h.23v.94h-.23v-.77Zm.27-.17h.02v.36s0,.04.02.05h-.02v.12h.02s-.03.02-.02.05v.36h-.02v-.94Zm.54.32h-.23v-.32h.23v.32Zm0,.35h-.48v-.05h.48v.05Zm-.3-.24h.02s.01,0,.02,0v.1s-.01,0-.02,0h-.02c-.03-.06-.03-.04,0-.09Zm.09.12s-.02,0-.03-.01h.02v-.12h-.02s.02,0,.03-.01c0,0,0,0,0,0,.01.02.06.05.06.07s-.04.05-.06.07c0,0,0,0,0,0Zm-.15-.12h-.03s-.03-.04-.05-.06h.12s-.03.04-.05.06Zm-.11,0h.02c.03.06.03.04,0,.09h-.02s0,0-.02,0v-.1s0,0,.02,0Zm.08.09h.03s.03.04.05.06h-.12s.03-.04.05-.06Zm.21.06s0-.03-.02-.03h.05s.03-.03.05-.04c0,.01.02.03.03.04h.05s-.04,0-.02.03h-.14Zm.17-.03s0,0,0,0c0-.01-.02-.03-.03-.04h-.05s.02,0,.02,0c.01,0,0,0,0-.02,0-.03.02,0,0-.03,0,0,0,0-.01,0h.05s.02-.03.03-.04c0,0,0,0,0,0,.01.01,0,.05,0,.07,0,.03,0,.06-.02.07Zm-.02-.15h-.04s-.02.03-.03.04c0,0,0,0,0,0-.02-.01-.03-.02-.05-.04h-.05s.04,0,.02-.03h.14s0,.03.01.03Zm-.24-.08h-.21v-.32h.21v.32Zm-.21.39h.21v.23h-.21v-.23Zm.26,0h.23v.23h-.23v-.23Zm.32,0v-.71h.24v.94h-.24v-.23Zm1.75.44h-.12v-.11h.12v.11Zm-.17,0h-.11v-.11h.11v.11Zm-.15,0h-.11v-.11h.11v.11Zm-.98-.11h.11v.11h-.11v-.11Zm.15,0h.09v.11h-.09v-.11Zm.14,0h.11v.11h-.11v-.11Zm.05-.33h.21v.23h-.21v-.23Zm0-.09h.47v.05h-.47v-.05Zm.18-.11c-.03-.06-.03-.04,0-.09h.02v-.02h.02v.12h-.02v-.02h-.02Zm.11-.09c.03.06.03.04,0,.09h-.02v.02h-.02v-.12h.02v.02h.02Zm.05.11h.02v-.02h.03s.03.04.05.06h-.12s.02-.03.03-.05Zm.12-.02h-.02c-.03-.06-.03-.04,0-.09h.02s0,0,.02,0v.1s0,0-.02,0Zm-.08-.09h-.03v-.02h-.02s-.02-.03-.03-.05h.12s-.03.04-.05.06Zm-.24-.02h-.02v.02h-.03s-.03-.04-.05-.06h.12s-.02.03-.03.05Zm-.12.02h.02c.03.06.03.04,0,.09h-.02s0,0-.02,0v-.1s0,0,.02,0Zm.08.09h.03v.02h.02s.02.03.03.05h-.12s.03-.04.05-.06Zm.38.42h-.21v-.23h.21v.23Zm-.36.11h.11v.11h-.11v-.11Zm.15,0h.09v.11h-.09v-.11Zm.14,0h.11v.11h-.11v-.11Zm.14-.11h-.02v-.36s0-.04-.02-.05h.02v-.12h-.02s.03-.02.02-.05v-.36h.02v.94Zm-.06-.62h-.21v-.32h.21v.32Zm-.26,0h-.21v-.32h.21v.32Zm-.26,0v.05s0,.04.02.05h-.02v.12h.02s-.03.02-.02.05v.36h-.02v-.94h.02v.32Zm-.06.62h-.24v-.94h.24v.94Zm-.36-.77h.06v.69h-.06v-.69Zm.02-.09h.03v.05h-.03s-.02-.03,0-.05Zm.05-.05h-.06v-.03h.06v.03Zm-.08,1.01h.09v.11h-.09v-.11Zm2.17.11h-.09v-.11h.09v.11Zm-.17-.11v.11h-.09v-.11h.09Zm-.14,0v.11h-.11v-.11h.11Zm-.15,0v.11h-.09v-.11h.09Zm-.14,0v.11h-.09v-.11h.09Zm-.53-.11v-.94h.18v.06s.02.05.06.06v.05s-.06.01-.06.04c0,.01,0,.02.02.02h-.02v.08h.04s-.04,0-.04.02c0,.03.04.03.06.04v.05s-.06.01-.06.04c0,.01,0,.02.02.02h-.02v.08h.02s-.03.02-.02.05h.06v.06s-.07.01-.06.06v.06h.04s-.04,0-.04.02c0,.03.04.03.06.04v.11h-.24Zm.38-.08h-.02v-.02h-.05v.02h-.02v-.03h.08v.03Zm0-.11h-.14s0,0-.02,0v-.05h.15v.05Zm0-.11h-.08v-.06h.08v.06Zm0-.12h-.14s0,0-.02,0v-.06s.01,0,.02,0h.14v.05Zm0-.12h-.08v-.05h.08v.05Zm0-.12h-.14s0,0-.02,0v-.06s.01,0,.02,0h.14v.05Zm0-.12h-.08v-.05h.08v.05Zm0-.11h-.15v-.06h.15v.06Zm-9.31-.75s.08-.08.12-.12c.08-.08.16-.16.23-.23l.23-.23c.07-.07.18-.15.23-.23h7.46c.05.09.16.16.23.23l.23.23.23.23c.07.07.18.15.23.23h-1.25c-.03-.06-.09-.09-.14-.13-.05-.05-.1-.08-.14-.13s-.1-.08-.14-.13c-.04-.04-.1-.07-.14-.13h-.02s-.07-.05-.09-.09h-.03s-.07.06-.09.09h-.02s-.04.04-.07.06c-.03.02-.05.05-.08.08-.05.04-.09.09-.14.13-.05.04-.1.08-.15.12-.03.02-.05.05-.08.08-.02.02-.05.03-.06.05h-4.03c-.03-.06-.09-.08-.14-.13-.05-.05-.09-.09-.14-.13-.05-.04-.09-.09-.14-.13-.05-.04-.1-.07-.14-.13h-.03s-.06-.06-.08-.09h-.05s-.06.06-.08.09h-.02c-.06.04-.1.09-.15.14-.05.04-.1.08-.14.12-.05.04-.09.09-.14.13-.04.03-.11.08-.14.13h-1.25s.07-.07.11-.1Zm6.81.08h.17v.02h-.17v-.02Zm.42-.36h.03v.02h-.03v-.02Zm.03.09s.02.02.03.03h.02c0,.05,0,.06-.03.11h-.06s-.05-.05-.05-.09h.02s.02-.03.03-.05h.05Zm-.17.05s.02.06.02.09c.02.03.05.06.08.08h.12s.03-.02.04-.03c0-.01.01-.03.02-.04h.02v-.11h.02s.06.06.1.09c.04.03.07.08.11.11h-.72c.04-.07.14-.1.18-.18h.03Zm-.08.23h.08v.02h-.08v-.02Zm.12,0h.08v.02h-.08v-.02Zm.12,0h.09v.02h-.09v-.02Zm.14,0h.09v.02h-.09v-.02Zm.14,0h.09v.02h-.09v-.02Zm.23,0s-.02-.03-.03-.05h-.02s-.07-.07-.11-.1c-.03-.03-.09-.06-.11-.1h-.02s-.01-.02-.02-.03h-.02s-.06-.04-.08-.08h-.02v-.02h-.02s-.06-.07-.09-.09h-.05s-.06.06-.08.09h-.03v.02h-.02s-.04.05-.06.08h-.02s-.04.03-.05.05h-.02c-.04.08-.14.1-.18.18h-.02s-.04.03-.05.05h-.02v.02h-.03c.03-.06.09-.09.14-.13.05-.04.1-.08.14-.13.05-.05.1-.08.14-.13.04-.04.1-.07.14-.13h.02c.05.04.1.09.15.13.05.04.09.09.14.13.05.04.1.09.14.13.04.04.11.08.14.13h-.05v-.02h-.02Zm-6.36,0h.02v.02h-.02v-.02Zm.42-.36h.03v.02h-.03v-.02Zm.03.09s.02.02.03.03c.04.04,0,.07-.02.11h-.06s-.06-.07-.03-.11h.02s.01-.02.02-.03h.05Zm-.17.03s0,.08.02.11c.02.03.05.06.08.08h.11s.06-.04.08-.08c.02-.03.02-.07.02-.11h.02c.05.08.15.11.2.2h-.71c.05-.08.15-.11.2-.2h.02Zm-.23.24h.09v.02h-.09v-.02Zm.14,0h.09v.02h-.09v-.02Zm.14,0h.08v.02h-.08v-.02Zm.12,0h.09v.02h-.09v-.02Zm.14,0h.09v.02h-.09v-.02Zm.14,0h.09v.02h-.09v-.02Zm.23,0s-.02-.03-.03-.05h-.02s-.08-.07-.11-.1c-.03-.03-.08-.06-.11-.1h-.02s-.01-.02-.02-.03h-.02s-.06-.04-.08-.08h-.02v-.02h-.02s-.07-.05-.09-.09h-.05s-.07.05-.09.09h-.02v.02h-.02s-.04.05-.06.08h-.03s-.01.02-.02.03h-.02s-.06.06-.1.09c-.04.03-.07.08-.11.11h-.02s-.02.03-.03.05h-.02v.02h-.05c.05-.04.1-.09.15-.13.05-.04.1-.09.14-.13.05-.04.1-.09.14-.13.04-.04.11-.08.14-.13h.02s.05.04.07.06c.03.02.05.05.08.07.05.04.09.09.14.12.05.04.1.09.15.13.03.02.05.05.08.08.02.02.05.03.06.05h-.05v-.02h-.02Zm-2.51.08h9.37v.02h-9.37v-.02Zm-.03.09h9.44c.07.12.22.17.29.29h-9.99c.06-.11.21-.17.27-.29Zm-.33.38v-.03h10.11v.03h-10.11Zm.29.06h.15v.06h-.15v-.06Zm0,.12h.08v.05h-.08v-.05Zm0,.12h.14s0,0,.02,0v.06s-.01,0-.02,0h-.14v-.05Zm0,.12h.08v.05h-.08v-.05Zm0,.12h.14s0,0,.02,0v.06s0,0-.02,0h-.14v-.05Zm0,.11h.08v.06h-.08v-.06Zm0,.12h.15v.05s-.01,0-.02,0h-.14v-.05Zm0,.12h.08v.03h-.02v-.02h-.05v.02h-.02v-.03Zm.14.03v-.03s.06-.01.06-.04c0-.01,0-.02-.02-.02h.02v-.06s-.02-.05-.06-.06v-.06h.06s0-.04-.02-.05h.02v-.08h-.04s.04,0,.04-.02c0-.03-.04-.03-.06-.04v-.05s.06-.01.06-.04c0-.01,0-.02-.02-.02h.02v-.08h-.04s.04,0,.04-.02c0-.03-.04-.03-.06-.04v-.05s.07-.01.06-.06v-.06h.17v.94h-.23v-.08Zm-.15.18h.11v.11h-.11v-.11Zm1.6.11v-.11h6.37v.17h-6.37v-.06Zm8.56,2.28h.17v.24h-.17v-.24Zm.23.33h-.27v-.05h.26v-.33h-.26v-.03h.27v.41Zm-.03-.51h-.05s.01-.02.02-.03v-.08s-.03-.03-.05-.05h-.08s-.02.03-.03.05h-.02v.08h.02v.03h-.05v-.39h.23v.39Zm-.12-.11h.03s.02.05,0,.08h-.05s0-.05.02-.08Zm-10.3-1.77h.23v.09h-.23v-.09Zm.3.09v-.09h.45v.02h-.08v.02h-.12v.02h-.08v.02h-.06v.02h-.03v.02h-.05s-.02.02-.03.03h-.02v-.03Zm9.83,0v.36h-.38v-.45h.38v.09Zm0,.5v.06h-.09v-.02s-.01-.03-.03-.03h.03v-.02h-.03s.04,0,.03-.03v-.02h.09v.05Zm0,.24h-.38v-.05h.38v.05Zm-.44-.05v.06h-.23v-.08h.23v.02Zm0,.18h-.23v-.08h.23v.08Zm0,.12h-.23v-.08h.23v.08Zm0,.21h-.23v-.17h.23v.17Zm-.3-.41v.41h-.98v-.42h.98v.02Zm-8.05.24h.24v.17h-.24v-.17Zm0-.12h.24v.08h-.24v-.08Zm0-.12h.24v.08h-.24v-.08Zm-1.04-.11h.98v.05h-.98v-.05Zm1.04.05v-.06h.24v.08h-.24v-.02Zm-1.04-.2v-.09h.09v.02s.01.03.03.03h-.03v.02h.03s-.04,0-.03.03v.02h-.09v-.02Zm0-.24v-.14s.02-.03.03-.05h.03s.1-.04.15-.06h.09v-.02h.36v.02h.11c.05.02.1.04.15.06h.03s.02.03.03.05v.2h-.98v-.06Zm.11-.27h.02v.02h-.02v-.02Zm.17-.03v-.02h.11v-.02h.05v.03h-.12v.02h-.11v.02h-.05s.03-.02.05-.03h.08Zm.42-.02v.02h.08s.04.02.06.03h-.05v-.02h-.11v-.02h-.12v-.03h.03v.02h.11Zm.35.06h.24v.08h-.24v-.08Zm.24.21h-.24v-.09h.24v.09Zm-.44-.21h0s.01,0,.02,0h-.02Zm-.38-.08h.03v.03h-.03v-.03Zm.57.39v-.06h.24v.08h-.24v-.02Zm1.43,0v-.42h.08v1.24h-.08v-.82Zm1.36,0v-.42h.06v1.24h-.06v-.82Zm1.36,0v-.42h.06v1.24h-.06v-.82Zm1.34,0v-.42h.06v1.24h-.06v-.82Zm1.27,0v-.06h.23v.08h-.23v-.02Zm0-.2h.23v.09h-.23v-.09Zm0-.12h.23v.08h-.23v-.08Zm1.28.45v.06h-.09v-.02s-.01-.03-.03-.03h.03v-.02h-.03s.04,0,.03-.03v-.02h.09v.05Zm0,.24h-.98v-.05h.98v.05Zm-1.06-.05v.06h-.23v-.08h.23v.02Zm0,.18h-.23v-.08h.23v.08Zm0,.12h-.23v-.08h.23v.08Zm-1.36-.3h1.07v.05h-1.07v-.05Zm0-.24h.15v.11h-.15v-.11Zm1.07.05v.06h-.15v-.11h.15v.05Zm-.88-.05h.14v.11h-.14v-.11Zm.18,0h.14v.11h-.14v-.11Zm.18,0h.14v.11h-.14v-.11Zm.18,0h.14v.11h-.14v-.11Zm.39.18v-.09h.23v.09h-.23Zm.3-.14v-.05h.09v.02s.01.03.03.03h-.03v.02h.03s-.04,0-.03.03v.02h-.09v-.06Zm.8.06h-.02v-.02h.02v.02Zm-.05-.05s0,0-.02,0h0s.02,0,.02,0Zm.08,0s0,0,.02,0h0s-.02,0-.02,0Zm-.03-.04h-.02v-.02h.02v.02Zm-.11,0s.01.03.03.03h-.03v.02h.03s-.04,0-.03.03v.02h-.11v-.02s-.01-.03-.03-.03h.03v-.02h-.03s.04,0,.03-.03v-.02h.11v.02Zm-.24.04s0,0-.02,0h0s.02,0,.02,0Zm.03.04h.02v.02h-.02v-.02Zm.06-.04h0s-.02,0-.02,0,0,0,.02,0Zm-.05-.03h-.02v-.02h.02v.02Zm-.11,0s.01.03.03.03h-.03v.02h.03s-.04,0-.03.03v.02h-.11v-.02s-.01-.03-.03-.03h.03v-.02h-.03s.04,0,.03-.03v-.02h.11v.02Zm-.24.04s0,0-.02,0h0s.02,0,.02,0Zm.03.04h.02v.02h-.02v-.02Zm.06-.04h0s-.02,0-.02,0,0,0,.02,0Zm-.05-.03h-.02v-.02h.02v.02Zm-.27-.02v.05h-.23v-.08h.23v.03Zm-2.72.24h1.16v.05h-1.16v-.05Zm1.16-.14h-.2v-.11h.2v.11Zm-.24,0h-.14v-.11h.14v.11Zm-.18,0h-.14v-.11h.14v.11Zm-.18,0h-.14v-.11h.14v.11Zm-.18,0h-.14v-.11h.14v.11Zm-.18,0h-.2v-.11h.2v.11Zm-1.54.14h1.15v.05h-1.15v-.05Zm1.15-.14h-.2v-.11h.2v.11Zm-.24,0h-.14v-.11h.14v.11Zm-.18,0h-.14v-.11h.14v.11Zm-.18,0h-.12v-.11h.12v.11Zm-.18,0h-.12v-.11h.12v.11Zm-.17,0h-.2v-.11h.2v.11Zm-1.55.14h1.16v.05h-1.16v-.05Zm1.16-.14h-.2v-.11h.2v.11Zm-.24,0h-.14v-.11h.14v.11Zm-.18,0h-.14v-.11h.14v.11Zm-.18,0h-.14v-.11h.14v.11Zm-.18,0h-.14v-.11h.14v.11Zm-.18,0h-.2v-.11h.2v.11Zm-1.46.14h1.07v.05h-1.07v-.05Zm0-.15v-.09h.15v.11h-.15v-.02Zm1.07.02h-.15v-.11h.15v.11Zm-.88-.11h.14v.11h-.14v-.11Zm.18,0h.14v.11h-.14v-.11Zm.18,0h.14v.11h-.14v-.11Zm.18,0h.14v.11h-.14v-.11Zm-.8-.03v.08h-.24v-.08h.24Zm-.3.12v.02h-.09v-.02s-.01-.03-.03-.03h.03v-.02h-.03s.04,0,.03-.03v-.02h.09v.09Zm-.8-.09h.02v.02h-.02v-.02Zm.05.05s0,0,.02,0h0s-.02,0-.02,0Zm-.08,0s0,0-.02,0h0s.02,0,.02,0Zm.03.04h.02v.02h-.02v-.02Zm.11,0s-.01-.03-.03-.03h.03v-.02h-.03s.04,0,.03-.03v-.02h.11v.02s.01.03.03.03h-.03v.02h.03s-.04,0-.03.03v.02h-.11v-.02Zm.24-.04s0,0,.02,0h0s-.02,0-.02,0Zm-.03-.04h-.02v-.02h.02v.02Zm-.06.04h0s.02,0,.02,0,0,0-.02,0Zm.05.03h.02v.02h-.02v-.02Zm.11,0s-.01-.03-.03-.03h.03v-.02h-.03s.04,0,.03-.03v-.02h.11v.02s.01.03.03.03h-.03v.02h.03s-.04,0-.03.03v.02h-.11v-.02Zm.24-.04s0,0,.02,0h0s-.02,0-.02,0Zm-.03-.04h-.02v-.02h.02v.02Zm-.06.04h0s.02,0,.02,0,0,0-.02,0Zm.05.03h.02v.02h-.02v-.02Zm.26.02v-.02h.24v.09h-.24v-.08Zm.3.48v-.26h1.07v.39h-.05v.03h-1.03v-.17Zm1.27.14v-.39h1.16v.39h-.06v.03h-1.06v-.03h-.05Zm1.36,0v-.39h1.15v.39h-.05v.03h-1.06v-.03h-.05Zm1.34,0v-.39h1.16v.39h-.05v.03h-1.07v-.03h-.05Zm1.36,0v-.39h1.07v.42h-1.03v-.03h-.05Zm1.13-.14h.23v.17h-.23v-.17Zm1.36-.41v-.09h.23v.09h-.23Zm.29-.14v-.05h.09v.02s.01.03.03.03h-.03v.02h.03s-.04,0-.03.03v.02h-.09v-.06Zm.2.06h-.02v-.02h.02v.02Zm-.05-.05s0,0-.02,0h0s.02,0,.02,0Zm.08,0s0,0,.02,0h0s-.02,0-.02,0Zm-.03-.04h-.02v-.02h.02v.02Zm-.26-.02v.05h-.23v-.08h.23v.03Zm-.23-.08v-.08h.23v.08h-.23Zm0-.21h.23v.09h-.23v-.09Zm0-.12h.23v.08h-.23v-.08Zm.23-.05h-.23v-.09h.23v.09Zm-.3,0v.36h-.98v-.45h.98v.09Zm-1.06,0h-.23v-.09h.23v.09Zm-.29,0v.36h-1.07v-.42h.05v-.03h1.03v.09Zm-1.27-.06v.42h-1.16v-.42h.05v-.03h1.07v.03h.05Zm-1.36,0v.42h-1.15v-.42h.05v-.03h1.06v.03h.05Zm-1.34,0v.42h-1.16v-.42h.05v-.03h1.06v.03h.06Zm-1.36,0v.42h-1.07v-.45h1.03v.03h.05Zm-1.13.06h-.24v-.09h.24v.09Zm-.3,0v.05h-.02s-.03-.04-.05-.05h-.05v-.02h-.03v-.02h-.06v-.02h-.08v-.02h-.12v-.02h-.08v-.02h.47v.09Zm-1.28.05h.23v.08h-.23v-.08Zm0,.12h.23v.09h-.23v-.09Zm0,.14h.23v.08h-.23v-.08Zm0,.12h.23v.08h-.23v-.08Zm0,.12h.23v.09h-.23v-.09Zm0,.14h.23v.08h-.23v-.08Zm1.28.11v.42h-.98v-.42h.98Zm-1.28.02h.23v.08h-.23v-.08Zm0,.12h.23v.08h-.23v-.08Zm0,.12h.23v.17h-.23v-.17Zm8.05.35v.29h-.03s-.02-.02-.03-.03h-.03v-.02h-.05v-.02h-.05v-.02h-.08v-.02h-.09v-.02h-.12v-.02h-.08v.02h-.11v.02h-.11v.02h-.06v.02h-.06v.02h-.03s-.05.02-.06.05h-.03v-.29h.05v-.03h.91v.03h.05Zm-.48.26h-.03s-.01-.02-.02-.03h.05v.03Zm-.88-.26v.29h-.03s-.04-.03-.06-.05h-.03v-.02h-.06l-.06-.03h-.11v-.02h-.12v-.02h-.06v.02h-.12v.02h-.11l-.06.03h-.05v.02h-.05v.02h-.03s-.02.02-.03.03h-.02v-.29h.03v-.03h.92v.03h.03Zm-.48.26h-.03v-.03h.05s-.01.02-.02.03Zm-.86-.26v.3h-.02s-.03-.04-.05-.05h-.03v-.02h-.05v-.02h-.05v-.02h-.08v-.02h-.09v-.02h-.12v-.02h-.08v.02h-.12v.02h-.09v.02h-.06v.02h-.06v.02h-.03s-.05.03-.08.05h-.02v-.29h.05v-.03h.91v.03h.05Zm-.48.26h-.03s-.01-.02-.02-.03h.05v.03Zm-.88-.26v.29h-.03s-.04-.03-.06-.05h-.05v-.02h-.05l-.06-.03h-.11v-.02h-.12v-.02h-.06v.02h-.12v.02h-.11s-.04.02-.06.03h-.05v.02h-.05s-.04.03-.06.05h-.02v-.29h.03v-.03h.91v.03h.05Zm-.48.26h-.03v-.03h.05s-.01.02-.02.03Zm-.86-.26v.3h-.02s-.05-.04-.08-.06h-.05v-.02h-.05v-.02h-.08v-.02h-.09v-.02h-.12v-.02h-.08v.02h-.12v.02h-.09v.02h-.08v.02h-.05v.02h-.03s-.05.03-.08.05h-.02v-.29h.05v-.03h.91v.03h.05Zm-.48.26h-.03s-.01-.02-.02-.03h.05v.03Zm-.88-.26v.29h-.03s-.04-.03-.06-.05h-.05v-.02h-.05s-.04-.02-.06-.03h-.11v-.02h-.12v-.02h-.06v.02h-.12v.02h-.11s-.04.02-.06.03h-.05v.02h-.05s-.04.03-.06.05h-.02s0-.05,0-.07c0-.03,0-.02.03-.04.04-.03.09-.04.14-.06h.03s.08-.04.12-.06h.05s.02-.02.03-.03h.02v.06s.02.03.03.05h.09s.02-.03.03-.05v-.05h.03v.02h.03s.08.04.12.06h.05s.07.03.11.06h.06v-.17h-.41s-.01-.02-.02-.03h-.09s-.01.02-.02.03h-.42v-.02h.03v-.03h.91v.03h.05Zm-.48.26h-.03v-.03h.05s-.01.02-.02.03Zm-.45-.2h.14s-.08.04-.12.06h-.02v-.06Zm.47-.03v.02s0,.03-.02.05h-.03s-.02-.04,0-.06h.05Zm.39.09h-.03s-.08-.04-.12-.06h.15v.06Zm-1.18.45h.17v.24h-.17v-.24Zm.23.33h-.27v-.05h.26v-.33h-.26v-.03h.27v.41Zm-.08-.51s.01-.02.02-.03v-.08h-.02s0-.04-.03-.05h-.08s-.02.03-.03.05h-.02v.08h.02v.03h-.05v-.39h.23v.39h-.05Zm-.09-.11h.05s.02.05,0,.08h-.05s-.02-.05,0-.08Zm.3.02v.02h-.03s-.04.03-.05.05h-.02s.06-.05.09-.08h.05s.07-.03.11-.05h.11v-.02h.08v.03h-.15v.02h-.08s-.04.02-.06.03h-.05Zm.82.02h-.03v-.02h-.05l-.06-.03h-.08v-.02h-.14v-.03h.06v.02h.11s.07.03.11.05h.05s.07.05.11.08h-.02s-.04-.03-.06-.05Zm.35.5h-.17v-.24h.17v.24Zm.05-.29h-.26v.33h.26v.05h-.27v-.41h.27v.03Zm-.06-.14v-.03h.02s0-.05-.02-.08c-.01-.02-.02-.03-.03-.05h-.08s-.04.03-.05.05c-.01.03,0,.04,0,.08,0,.01.01.02.02.03h-.06v-.39h.24v.39h-.05Zm-.09-.11h.03s.05.05.02.08h-.06s0-.05.02-.08Zm.2.08s.03-.03.05-.04c0,.02-.02.03-.04.04h-.02Zm.11-.06v.02h-.04s.03-.02.04-.03h.03s.08-.03.12-.05h.09v-.02h.08v.03h-.14v.02h-.09s-.03.02-.05.03h-.05Zm.68-.03h-.09v-.02h-.14v-.03h.08v.02h.09s.11.03.15.06h-.03s-.04-.02-.06-.03Zm.14.05h-.03v-.02h.02s.07.04.09.08h-.02s-.04-.04-.06-.06Zm.17.26h.17v.24h-.17v-.24Zm.23.33h-.27v-.05h.26v-.33h-.26v-.03h.27v.41Zm-.08-.51s.01-.02.02-.03v-.08s-.03-.03-.05-.05h-.08s-.02.03-.03.05h-.02v.08h.02v.03h-.05v-.39h.23v.39h-.05Zm-.09-.11h.05s.02.05,0,.08h-.05s-.02-.05,0-.08Zm.3.02v.02h-.03s-.04.03-.05.05h-.02s.06-.05.09-.08h.05s.07-.03.11-.05h.11v-.02h.08v.03h-.15v.02h-.08s-.04.02-.06.03h-.05Zm.82.02h-.03v-.02h-.05s-.04-.02-.06-.03h-.08v-.02h-.14v-.03h.06v.02h.11s.07.03.11.05h.05s.07.05.11.08h-.02s-.04-.03-.06-.05Zm.35.5h-.17v-.24h.17v.24Zm.05-.29h-.26v.33h.26v.05h-.27v-.41h.27v.03Zm-.06-.14v-.03h.02v-.08h-.02s-.02-.03-.03-.05h-.08s-.04.03-.05.05v.08s.01.02.02.03h-.05v-.39h.23v.39h-.05Zm-.09-.11h.03s.05.05.02.08h-.05s-.02-.05,0-.08Zm.2.08s.03-.03.05-.04c0,.02-.02.03-.04.04h-.02Zm.11-.06v.02h-.04s.03-.02.04-.03h.05s.07-.03.11-.05h.09v-.02h.08v.03h-.14v.02h-.09s-.03.02-.05.03h-.05Zm.68-.03h-.09v-.02h-.14v-.03h.08v.02h.09v.02h.08s.05.03.08.05h-.03s-.04-.02-.06-.03Zm.14.05h-.03v-.02h.03s.06.04.08.08h-.02s-.04-.04-.06-.06Zm.17.26h.17v.24h-.17v-.24Zm.23.33h-.27v-.05h.26v-.33h-.26v-.03h.27v.41Zm-.08-.51s.01-.02.02-.03v-.08s-.03-.03-.05-.05h-.08s-.02.03-.03.05h-.02v.08h.02v.03h-.05v-.39h.23v.39h-.05Zm-.08-.11h.03s.02.05,0,.08h-.05s0-.05.02-.08Zm.29.02v.02h-.03s-.04.03-.05.05h-.02s.07-.06.09-.08h.05s.03-.02.05-.03h.08v-.02h.09v-.02h.08v.03h-.15v.02h-.08s-.04.02-.06.03h-.05Zm.82.02h-.03v-.02h-.05s-.04-.02-.06-.03h-.08v-.02h-.14v-.03h.08v.02h.09s.07.03.11.05h.05s.07.05.11.08h-.02s-.04-.03-.06-.05Zm.35.5h-.17v-.24h.17v.24Zm.05-.29h-.26v.33h.26v.05h-.27v-.41h.27v.03Zm-.06-.14v-.03h.02v-.08h-.02s-.02-.03-.03-.05h-.08s-.04.03-.05.05v.08s.01.02.02.03h-.05v-.39h.23v.39h-.05Zm-.09-.11h.03s.05.05.02.08h-.05s-.02-.05,0-.08Zm.2.08s.03-.03.05-.04c0,.02-.02.03-.04.04h-.02Zm.11-.06v.02h-.04s.03-.02.04-.03h.05s.07-.03.11-.05h.09v-.02h.08v.03h-.14v.02h-.09s-.03.02-.05.03h-.05Zm.79.02v-.02h-.05s-.04-.02-.06-.03h-.08v-.02h-.15v-.03h.08v.02h.09v.02h.08s.03.02.05.03h.03s.03.02.04.03h-.03Zm.05.02s.05.02.06.05h-.02s-.03-.03-.05-.05Zm.15.24h.17v.24h-.17v-.24Zm.23.33h-.27v-.05h.26v-.33h-.26v-.03h.27v.41Zm-.08-.51s.01-.02.02-.03v-.08s-.03-.03-.05-.05h-.08s-.02.03-.03.05h-.02v.08h.02v.03h-.05v-.39h.23v.39h-.05Zm-.08-.11h.03s.02.05,0,.08h-.05s0-.05.02-.08Zm.2.08s.03-.03.05-.04c0,.02-.02.03-.04.04h-.02Zm.2-.09s-.03.02-.05.03h-.05v.02h-.04s.03-.02.04-.03h.03s.08-.03.12-.05h.09v-.02h.08v.03h-.14v.02h-.09Zm.32-.02h-.03s-.01-.02-.02-.03h.05v.03Zm.33.05l-.06-.03h-.09v-.02h-.14v-.03h.08v.02h.09s.08.03.12.05h.03s.03.02.04.03h-.03v-.02h-.05Zm.08.02s.04.02.05.04h-.02s-.02-.03-.04-.04Zm.32.49h-.17v-.24h.17v.24Zm.05-.29h-.26v.33h.26v.05h-.27v-.41h.27v.03Zm-.02-.14h-.05v-.03h.02v-.08h-.02s-.02-.03-.03-.05h-.08s-.04.03-.05.05v.08s.01.02.02.03h-.05v-.39h.23v.39Zm-.14-.11h.05s.02.05,0,.08h-.05s-.02-.05,0-.08Zm-.17-.29v.29h-.02s-.04-.03-.06-.05h-.05v-.02h-.05v-.02h-.08v-.02h-.09v-.02h-.12v-.02h-.08v.02h-.12v.02h-.09v.02h-.08v.02h-.05v.02h-.03s-.05.03-.08.05h-.02v-.29h.05v-.03h.91v.03h.03Zm1.15-.11v.02h-10.66v-.02h10.66Zm-.12-.08h-.23v-.17h.23v.17Zm0-.21h-.23v-.08h.23v.08Zm0-.12h-.23v-.08h.23v.08Zm-.29-.08v.41h-.38v-.42h.38v.02Zm.29-.05h-.23v-.08h.23v.08Zm0-.12h-.23v-.09h.23v.09Zm0-.14h-.23v-.08h.23v.08Zm0-.12h-.23v-.08h.23v.08Zm0-.12h-.23v-.09h.23v.09Zm0-.14h-.23v-.08h.23v.08Zm0-.12h-.23v-.09h.23v.09Zm.12-.17h-10.66v-.02h10.66v.02Z"/><path class="cls-1" d="m18.52,12.69v-.18h-.56v.21h.56v-.03Zm-.53,0v-.14h.48v.14h-.48Z"/><path class="cls-1" d="m13.52,12.55v.17h.56v-.21h-.56v.05Zm.51,0v.14h-.48v-.14h.48Z"/></svg>